# Procedural original R2 mesh: FilmCamera
mtllib materials.mtl
v -1.3000 0.5000 -0.7250
v 1.3000 0.5000 -0.7250
v 1.3000 2.0000 -0.7250
v -1.3000 2.0000 -0.7250
v -1.3000 0.5000 0.7250
v 1.3000 0.5000 0.7250
v 1.3000 2.0000 0.7250
v -1.3000 2.0000 0.7250
v -1.2250 1.7800 0.0000
v -0.6750 1.7800 0.0000
v -1.2250 1.7435 0.1837
v -0.6750 1.7435 0.1837
v -1.2250 1.6394 0.3394
v -0.6750 1.6394 0.3394
v -1.2250 1.4837 0.4435
v -0.6750 1.4837 0.4435
v -1.2250 1.3000 0.4800
v -0.6750 1.3000 0.4800
v -1.2250 1.1163 0.4435
v -0.6750 1.1163 0.4435
v -1.2250 0.9606 0.3394
v -0.6750 0.9606 0.3394
v -1.2250 0.8565 0.1837
v -0.6750 0.8565 0.1837
v -1.2250 0.8200 0.0000
v -0.6750 0.8200 0.0000
v -1.2250 0.8565 -0.1837
v -0.6750 0.8565 -0.1837
v -1.2250 0.9606 -0.3394
v -0.6750 0.9606 -0.3394
v -1.2250 1.1163 -0.4435
v -0.6750 1.1163 -0.4435
v -1.2250 1.3000 -0.4800
v -0.6750 1.3000 -0.4800
v -1.2250 1.4837 -0.4435
v -0.6750 1.4837 -0.4435
v -1.2250 1.6394 -0.3394
v -0.6750 1.6394 -0.3394
v -1.2250 1.7435 -0.1837
v -0.6750 1.7435 -0.1837
v -1.2500 1.8900 0.0000
v -1.1864 1.8636 0.0000
v -1.1600 1.8000 0.0000
v -1.1864 1.7364 0.0000
v -1.2500 1.7100 0.0000
v -1.3136 1.7364 0.0000
v -1.3400 1.8000 0.0000
v -1.3136 1.8636 0.0000
v -1.2500 1.8611 0.1823
v -1.1864 1.8361 0.1742
v -1.1600 1.7755 0.1545
v -1.1864 1.7150 0.1348
v -1.2500 1.6899 0.1267
v -1.3136 1.7150 0.1348
v -1.3400 1.7755 0.1545
v -1.3136 1.8361 0.1742
v -1.2500 1.7773 0.3468
v -1.1864 1.7560 0.3313
v -1.1600 1.7045 0.2939
v -1.1864 1.6530 0.2565
v -1.2500 1.6317 0.2410
v -1.3136 1.6530 0.2565
v -1.3400 1.7045 0.2939
v -1.3136 1.7560 0.3313
v -1.2500 1.6468 0.4773
v -1.1864 1.6313 0.4560
v -1.1600 1.5939 0.4045
v -1.1864 1.5565 0.3530
v -1.2500 1.5410 0.3317
v -1.3136 1.5565 0.3530
v -1.3400 1.5939 0.4045
v -1.3136 1.6313 0.4560
v -1.2500 1.4823 0.5611
v -1.1864 1.4742 0.5361
v -1.1600 1.4545 0.4755
v -1.1864 1.4348 0.4150
v -1.2500 1.4267 0.3899
v -1.3136 1.4348 0.4150
v -1.3400 1.4545 0.4755
v -1.3136 1.4742 0.5361
v -1.2500 1.3000 0.5900
v -1.1864 1.3000 0.5636
v -1.1600 1.3000 0.5000
v -1.1864 1.3000 0.4364
v -1.2500 1.3000 0.4100
v -1.3136 1.3000 0.4364
v -1.3400 1.3000 0.5000
v -1.3136 1.3000 0.5636
v -1.2500 1.1177 0.5611
v -1.1864 1.1258 0.5361
v -1.1600 1.1455 0.4755
v -1.1864 1.1652 0.4150
v -1.2500 1.1733 0.3899
v -1.3136 1.1652 0.4150
v -1.3400 1.1455 0.4755
v -1.3136 1.1258 0.5361
v -1.2500 0.9532 0.4773
v -1.1864 0.9687 0.4560
v -1.1600 1.0061 0.4045
v -1.1864 1.0435 0.3530
v -1.2500 1.0590 0.3317
v -1.3136 1.0435 0.3530
v -1.3400 1.0061 0.4045
v -1.3136 0.9687 0.4560
v -1.2500 0.8227 0.3468
v -1.1864 0.8440 0.3313
v -1.1600 0.8955 0.2939
v -1.1864 0.9470 0.2565
v -1.2500 0.9683 0.2410
v -1.3136 0.9470 0.2565
v -1.3400 0.8955 0.2939
v -1.3136 0.8440 0.3313
v -1.2500 0.7389 0.1823
v -1.1864 0.7639 0.1742
v -1.1600 0.8245 0.1545
v -1.1864 0.8850 0.1348
v -1.2500 0.9101 0.1267
v -1.3136 0.8850 0.1348
v -1.3400 0.8245 0.1545
v -1.3136 0.7639 0.1742
v -1.2500 0.7100 0.0000
v -1.1864 0.7364 0.0000
v -1.1600 0.8000 0.0000
v -1.1864 0.8636 0.0000
v -1.2500 0.8900 0.0000
v -1.3136 0.8636 0.0000
v -1.3400 0.8000 0.0000
v -1.3136 0.7364 0.0000
v -1.2500 0.7389 -0.1823
v -1.1864 0.7639 -0.1742
v -1.1600 0.8245 -0.1545
v -1.1864 0.8850 -0.1348
v -1.2500 0.9101 -0.1267
v -1.3136 0.8850 -0.1348
v -1.3400 0.8245 -0.1545
v -1.3136 0.7639 -0.1742
v -1.2500 0.8227 -0.3468
v -1.1864 0.8440 -0.3313
v -1.1600 0.8955 -0.2939
v -1.1864 0.9470 -0.2565
v -1.2500 0.9683 -0.2410
v -1.3136 0.9470 -0.2565
v -1.3400 0.8955 -0.2939
v -1.3136 0.8440 -0.3313
v -1.2500 0.9532 -0.4773
v -1.1864 0.9687 -0.4560
v -1.1600 1.0061 -0.4045
v -1.1864 1.0435 -0.3530
v -1.2500 1.0590 -0.3317
v -1.3136 1.0435 -0.3530
v -1.3400 1.0061 -0.4045
v -1.3136 0.9687 -0.4560
v -1.2500 1.1177 -0.5611
v -1.1864 1.1258 -0.5361
v -1.1600 1.1455 -0.4755
v -1.1864 1.1652 -0.4150
v -1.2500 1.1733 -0.3899
v -1.3136 1.1652 -0.4150
v -1.3400 1.1455 -0.4755
v -1.3136 1.1258 -0.5361
v -1.2500 1.3000 -0.5900
v -1.1864 1.3000 -0.5636
v -1.1600 1.3000 -0.5000
v -1.1864 1.3000 -0.4364
v -1.2500 1.3000 -0.4100
v -1.3136 1.3000 -0.4364
v -1.3400 1.3000 -0.5000
v -1.3136 1.3000 -0.5636
v -1.2500 1.4823 -0.5611
v -1.1864 1.4742 -0.5361
v -1.1600 1.4545 -0.4755
v -1.1864 1.4348 -0.4150
v -1.2500 1.4267 -0.3899
v -1.3136 1.4348 -0.4150
v -1.3400 1.4545 -0.4755
v -1.3136 1.4742 -0.5361
v -1.2500 1.6468 -0.4773
v -1.1864 1.6313 -0.4560
v -1.1600 1.5939 -0.4045
v -1.1864 1.5565 -0.3530
v -1.2500 1.5410 -0.3317
v -1.3136 1.5565 -0.3530
v -1.3400 1.5939 -0.4045
v -1.3136 1.6313 -0.4560
v -1.2500 1.7773 -0.3468
v -1.1864 1.7560 -0.3313
v -1.1600 1.7045 -0.2939
v -1.1864 1.6530 -0.2565
v -1.2500 1.6317 -0.2410
v -1.3136 1.6530 -0.2565
v -1.3400 1.7045 -0.2939
v -1.3136 1.7560 -0.3313
v -1.2500 1.8611 -0.1823
v -1.1864 1.8361 -0.1742
v -1.1600 1.7755 -0.1545
v -1.1864 1.7150 -0.1348
v -1.2500 1.6899 -0.1267
v -1.3136 1.7150 -0.1348
v -1.3400 1.7755 -0.1545
v -1.3136 1.8361 -0.1742
v 0.1400 1.9450 -0.2500
v 0.5600 1.9450 -0.2500
v 0.5600 2.2950 -0.2500
v 0.1400 2.2950 -0.2500
v 0.1400 1.9450 0.2500
v 0.5600 1.9450 0.2500
v 0.5600 2.2950 0.2500
v 0.1400 2.2950 0.2500
v 0.5400 2.0400 0.0000
v 0.7000 2.0400 0.0000
v 0.5400 2.0293 0.0536
v 0.7000 2.0293 0.0536
v 0.5400 1.9990 0.0990
v 0.7000 1.9990 0.0990
v 0.5400 1.9536 0.1293
v 0.7000 1.9536 0.1293
v 0.5400 1.9000 0.1400
v 0.7000 1.9000 0.1400
v 0.5400 1.8464 0.1293
v 0.7000 1.8464 0.1293
v 0.5400 1.8010 0.0990
v 0.7000 1.8010 0.0990
v 0.5400 1.7707 0.0536
v 0.7000 1.7707 0.0536
v 0.5400 1.7600 0.0000
v 0.7000 1.7600 0.0000
v 0.5400 1.7707 -0.0536
v 0.7000 1.7707 -0.0536
v 0.5400 1.8010 -0.0990
v 0.7000 1.8010 -0.0990
v 0.5400 1.8464 -0.1293
v 0.7000 1.8464 -0.1293
v 0.5400 1.9000 -0.1400
v 0.7000 1.9000 -0.1400
v 0.5400 1.9536 -0.1293
v 0.7000 1.9536 -0.1293
v 0.5400 1.9990 -0.0990
v 0.7000 1.9990 -0.0990
v 0.5400 2.0293 -0.0536
v 0.7000 2.0293 -0.0536
v -0.9000 0.5100 0.6600
v 0.9000 0.5100 0.6600
v 0.9000 0.5900 0.6600
v -0.9000 0.5900 0.6600
v -0.9000 0.5100 0.7800
v 0.9000 0.5100 0.7800
v 0.9000 0.5900 0.7800
v -0.9000 0.5900 0.7800
v 1.1500 1.4700 0.0000
v 1.1500 1.6300 0.0000
v 1.1348 1.4700 0.0765
v 1.1348 1.6300 0.0765
v 1.0914 1.4700 0.1414
v 1.0914 1.6300 0.1414
v 1.0265 1.4700 0.1848
v 1.0265 1.6300 0.1848
v 0.9500 1.4700 0.2000
v 0.9500 1.6300 0.2000
v 0.8735 1.4700 0.1848
v 0.8735 1.6300 0.1848
v 0.8086 1.4700 0.1414
v 0.8086 1.6300 0.1414
v 0.7652 1.4700 0.0765
v 0.7652 1.6300 0.0765
v 0.7500 1.4700 0.0000
v 0.7500 1.6300 0.0000
v 0.7652 1.4700 -0.0765
v 0.7652 1.6300 -0.0765
v 0.8086 1.4700 -0.1414
v 0.8086 1.6300 -0.1414
v 0.8735 1.4700 -0.1848
v 0.8735 1.6300 -0.1848
v 0.9500 1.4700 -0.2000
v 0.9500 1.6300 -0.2000
v 1.0265 1.4700 -0.1848
v 1.0265 1.6300 -0.1848
v 1.0914 1.4700 -0.1414
v 1.0914 1.6300 -0.1414
v 1.1348 1.4700 -0.0765
v 1.1348 1.6300 -0.0765
g painted_metal
usemtl painted_metal
f 1 2 3 4
f 5 8 7 6
f 1 5 6 2
f 2 6 7 3
f 3 7 8 4
f 5 1 4 8
g glass
usemtl glass
f 9 11 12 10
f 11 13 14 12
f 13 15 16 14
f 15 17 18 16
f 17 19 20 18
f 19 21 22 20
f 21 23 24 22
f 23 25 26 24
f 25 27 28 26
f 27 29 30 28
f 29 31 32 30
f 31 33 34 32
f 33 35 36 34
f 35 37 38 36
f 37 39 40 38
f 39 9 10 40
f 39 37 35 33 31 29 27 25 23 21 19 17 15 13 11 9
f 10 12 14 16 18 20 22 24 26 28 30 32 34 36 38 40
g brass
usemtl brass
f 41 49 50 42
f 42 50 51 43
f 43 51 52 44
f 44 52 53 45
f 45 53 54 46
f 46 54 55 47
f 47 55 56 48
f 48 56 49 41
f 49 57 58 50
f 50 58 59 51
f 51 59 60 52
f 52 60 61 53
f 53 61 62 54
f 54 62 63 55
f 55 63 64 56
f 56 64 57 49
f 57 65 66 58
f 58 66 67 59
f 59 67 68 60
f 60 68 69 61
f 61 69 70 62
f 62 70 71 63
f 63 71 72 64
f 64 72 65 57
f 65 73 74 66
f 66 74 75 67
f 67 75 76 68
f 68 76 77 69
f 69 77 78 70
f 70 78 79 71
f 71 79 80 72
f 72 80 73 65
f 73 81 82 74
f 74 82 83 75
f 75 83 84 76
f 76 84 85 77
f 77 85 86 78
f 78 86 87 79
f 79 87 88 80
f 80 88 81 73
f 81 89 90 82
f 82 90 91 83
f 83 91 92 84
f 84 92 93 85
f 85 93 94 86
f 86 94 95 87
f 87 95 96 88
f 88 96 89 81
f 89 97 98 90
f 90 98 99 91
f 91 99 100 92
f 92 100 101 93
f 93 101 102 94
f 94 102 103 95
f 95 103 104 96
f 96 104 97 89
f 97 105 106 98
f 98 106 107 99
f 99 107 108 100
f 100 108 109 101
f 101 109 110 102
f 102 110 111 103
f 103 111 112 104
f 104 112 105 97
f 105 113 114 106
f 106 114 115 107
f 107 115 116 108
f 108 116 117 109
f 109 117 118 110
f 110 118 119 111
f 111 119 120 112
f 112 120 113 105
f 113 121 122 114
f 114 122 123 115
f 115 123 124 116
f 116 124 125 117
f 117 125 126 118
f 118 126 127 119
f 119 127 128 120
f 120 128 121 113
f 121 129 130 122
f 122 130 131 123
f 123 131 132 124
f 124 132 133 125
f 125 133 134 126
f 126 134 135 127
f 127 135 136 128
f 128 136 129 121
f 129 137 138 130
f 130 138 139 131
f 131 139 140 132
f 132 140 141 133
f 133 141 142 134
f 134 142 143 135
f 135 143 144 136
f 136 144 137 129
f 137 145 146 138
f 138 146 147 139
f 139 147 148 140
f 140 148 149 141
f 141 149 150 142
f 142 150 151 143
f 143 151 152 144
f 144 152 145 137
f 145 153 154 146
f 146 154 155 147
f 147 155 156 148
f 148 156 157 149
f 149 157 158 150
f 150 158 159 151
f 151 159 160 152
f 152 160 153 145
f 153 161 162 154
f 154 162 163 155
f 155 163 164 156
f 156 164 165 157
f 157 165 166 158
f 158 166 167 159
f 159 167 168 160
f 160 168 161 153
f 161 169 170 162
f 162 170 171 163
f 163 171 172 164
f 164 172 173 165
f 165 173 174 166
f 166 174 175 167
f 167 175 176 168
f 168 176 169 161
f 169 177 178 170
f 170 178 179 171
f 171 179 180 172
f 172 180 181 173
f 173 181 182 174
f 174 182 183 175
f 175 183 184 176
f 176 184 177 169
f 177 185 186 178
f 178 186 187 179
f 179 187 188 180
f 180 188 189 181
f 181 189 190 182
f 182 190 191 183
f 183 191 192 184
f 184 192 185 177
f 185 193 194 186
f 186 194 195 187
f 187 195 196 188
f 188 196 197 189
f 189 197 198 190
f 190 198 199 191
f 191 199 200 192
f 192 200 193 185
f 193 41 42 194
f 194 42 43 195
f 195 43 44 196
f 196 44 45 197
f 197 45 46 198
f 198 46 47 199
f 199 47 48 200
f 200 48 41 193
g dark_wood
usemtl dark_wood
f 201 202 203 204
f 205 208 207 206
f 201 205 206 202
f 202 206 207 203
f 203 207 208 204
f 205 201 204 208
g brass
usemtl brass
f 209 211 212 210
f 211 213 214 212
f 213 215 216 214
f 215 217 218 216
f 217 219 220 218
f 219 221 222 220
f 221 223 224 222
f 223 225 226 224
f 225 227 228 226
f 227 229 230 228
f 229 231 232 230
f 231 233 234 232
f 233 235 236 234
f 235 237 238 236
f 237 239 240 238
f 239 209 210 240
f 239 237 235 233 231 229 227 225 223 221 219 217 215 213 211 209
f 210 212 214 216 218 220 222 224 226 228 230 232 234 236 238 240
f 241 242 243 244
f 245 248 247 246
f 241 245 246 242
f 242 246 247 243
f 243 247 248 244
f 245 241 244 248
f 249 251 252 250
f 251 253 254 252
f 253 255 256 254
f 255 257 258 256
f 257 259 260 258
f 259 261 262 260
f 261 263 264 262
f 263 265 266 264
f 265 267 268 266
f 267 269 270 268
f 269 271 272 270
f 271 273 274 272
f 273 275 276 274
f 275 277 278 276
f 277 279 280 278
f 279 249 250 280
f 279 277 275 273 271 269 267 265 263 261 259 257 255 253 251 249
f 250 252 254 256 258 260 262 264 266 268 270 272 274 276 278 280
