# Procedural original R2 mesh: gauge
mtllib materials.mtl
v 0.7500 0.5000 0.0000
v 0.7500 0.8000 0.0000
v 0.6929 0.5000 0.2870
v 0.6929 0.8000 0.2870
v 0.5303 0.5000 0.5303
v 0.5303 0.8000 0.5303
v 0.2870 0.5000 0.6929
v 0.2870 0.8000 0.6929
v 0.0000 0.5000 0.7500
v 0.0000 0.8000 0.7500
v -0.2870 0.5000 0.6929
v -0.2870 0.8000 0.6929
v -0.5303 0.5000 0.5303
v -0.5303 0.8000 0.5303
v -0.6929 0.5000 0.2870
v -0.6929 0.8000 0.2870
v -0.7500 0.5000 0.0000
v -0.7500 0.8000 0.0000
v -0.6929 0.5000 -0.2870
v -0.6929 0.8000 -0.2870
v -0.5303 0.5000 -0.5303
v -0.5303 0.8000 -0.5303
v -0.2870 0.5000 -0.6929
v -0.2870 0.8000 -0.6929
v -0.0000 0.5000 -0.7500
v -0.0000 0.8000 -0.7500
v 0.2870 0.5000 -0.6929
v 0.2870 0.8000 -0.6929
v 0.5303 0.5000 -0.5303
v 0.5303 0.8000 -0.5303
v 0.6929 0.5000 -0.2870
v 0.6929 0.8000 -0.2870
v 0.7400 0.6500 0.1800
v 0.7166 0.7066 0.1800
v 0.6600 0.7300 0.1800
v 0.6034 0.7066 0.1800
v 0.5800 0.6500 0.1800
v 0.6034 0.5934 0.1800
v 0.6600 0.5700 0.1800
v 0.7166 0.5934 0.1800
v 0.7038 0.6500 0.4087
v 0.6815 0.7066 0.4014
v 0.6277 0.7300 0.3840
v 0.5739 0.7066 0.3665
v 0.5516 0.6500 0.3592
v 0.5739 0.5934 0.3665
v 0.6277 0.5700 0.3840
v 0.6815 0.5934 0.4014
v 0.5987 0.6500 0.6150
v 0.5797 0.7066 0.6012
v 0.5340 0.7300 0.5679
v 0.4882 0.7066 0.5347
v 0.4692 0.6500 0.5209
v 0.4882 0.5934 0.5347
v 0.5340 0.5700 0.5679
v 0.5797 0.5934 0.6012
v 0.4350 0.6500 0.7787
v 0.4212 0.7066 0.7597
v 0.3879 0.7300 0.7140
v 0.3547 0.7066 0.6682
v 0.3409 0.6500 0.6492
v 0.3547 0.5934 0.6682
v 0.3879 0.5700 0.7140
v 0.4212 0.5934 0.7597
v 0.2287 0.6500 0.8838
v 0.2214 0.7066 0.8615
v 0.2040 0.7300 0.8077
v 0.1865 0.7066 0.7539
v 0.1792 0.6500 0.7316
v 0.1865 0.5934 0.7539
v 0.2040 0.5700 0.8077
v 0.2214 0.5934 0.8615
v 0.0000 0.6500 0.9200
v 0.0000 0.7066 0.8966
v 0.0000 0.7300 0.8400
v 0.0000 0.7066 0.7834
v 0.0000 0.6500 0.7600
v 0.0000 0.5934 0.7834
v 0.0000 0.5700 0.8400
v 0.0000 0.5934 0.8966
v -0.2287 0.6500 0.8838
v -0.2214 0.7066 0.8615
v -0.2040 0.7300 0.8077
v -0.1865 0.7066 0.7539
v -0.1792 0.6500 0.7316
v -0.1865 0.5934 0.7539
v -0.2040 0.5700 0.8077
v -0.2214 0.5934 0.8615
v -0.4350 0.6500 0.7787
v -0.4212 0.7066 0.7597
v -0.3879 0.7300 0.7140
v -0.3547 0.7066 0.6682
v -0.3409 0.6500 0.6492
v -0.3547 0.5934 0.6682
v -0.3879 0.5700 0.7140
v -0.4212 0.5934 0.7597
v -0.5987 0.6500 0.6150
v -0.5797 0.7066 0.6012
v -0.5340 0.7300 0.5679
v -0.4882 0.7066 0.5347
v -0.4692 0.6500 0.5209
v -0.4882 0.5934 0.5347
v -0.5340 0.5700 0.5679
v -0.5797 0.5934 0.6012
v -0.7038 0.6500 0.4087
v -0.6815 0.7066 0.4014
v -0.6277 0.7300 0.3840
v -0.5739 0.7066 0.3665
v -0.5516 0.6500 0.3592
v -0.5739 0.5934 0.3665
v -0.6277 0.5700 0.3840
v -0.6815 0.5934 0.4014
v -0.7400 0.6500 0.1800
v -0.7166 0.7066 0.1800
v -0.6600 0.7300 0.1800
v -0.6034 0.7066 0.1800
v -0.5800 0.6500 0.1800
v -0.6034 0.5934 0.1800
v -0.6600 0.5700 0.1800
v -0.7166 0.5934 0.1800
v -0.7038 0.6500 -0.0487
v -0.6815 0.7066 -0.0414
v -0.6277 0.7300 -0.0240
v -0.5739 0.7066 -0.0065
v -0.5516 0.6500 0.0008
v -0.5739 0.5934 -0.0065
v -0.6277 0.5700 -0.0240
v -0.6815 0.5934 -0.0414
v -0.5987 0.6500 -0.2550
v -0.5797 0.7066 -0.2412
v -0.5340 0.7300 -0.2079
v -0.4882 0.7066 -0.1747
v -0.4692 0.6500 -0.1609
v -0.4882 0.5934 -0.1747
v -0.5340 0.5700 -0.2079
v -0.5797 0.5934 -0.2412
v -0.4350 0.6500 -0.4187
v -0.4212 0.7066 -0.3997
v -0.3879 0.7300 -0.3540
v -0.3547 0.7066 -0.3082
v -0.3409 0.6500 -0.2892
v -0.3547 0.5934 -0.3082
v -0.3879 0.5700 -0.3540
v -0.4212 0.5934 -0.3997
v -0.2287 0.6500 -0.5238
v -0.2214 0.7066 -0.5015
v -0.2040 0.7300 -0.4477
v -0.1865 0.7066 -0.3939
v -0.1792 0.6500 -0.3716
v -0.1865 0.5934 -0.3939
v -0.2040 0.5700 -0.4477
v -0.2214 0.5934 -0.5015
v -0.0000 0.6500 -0.5600
v -0.0000 0.7066 -0.5366
v -0.0000 0.7300 -0.4800
v -0.0000 0.7066 -0.4234
v -0.0000 0.6500 -0.4000
v -0.0000 0.5934 -0.4234
v -0.0000 0.5700 -0.4800
v -0.0000 0.5934 -0.5366
v 0.2287 0.6500 -0.5238
v 0.2214 0.7066 -0.5015
v 0.2040 0.7300 -0.4477
v 0.1865 0.7066 -0.3939
v 0.1792 0.6500 -0.3716
v 0.1865 0.5934 -0.3939
v 0.2040 0.5700 -0.4477
v 0.2214 0.5934 -0.5015
v 0.4350 0.6500 -0.4187
v 0.4212 0.7066 -0.3997
v 0.3879 0.7300 -0.3540
v 0.3547 0.7066 -0.3082
v 0.3409 0.6500 -0.2892
v 0.3547 0.5934 -0.3082
v 0.3879 0.5700 -0.3540
v 0.4212 0.5934 -0.3997
v 0.5987 0.6500 -0.2550
v 0.5797 0.7066 -0.2412
v 0.5340 0.7300 -0.2079
v 0.4882 0.7066 -0.1747
v 0.4692 0.6500 -0.1609
v 0.4882 0.5934 -0.1747
v 0.5340 0.5700 -0.2079
v 0.5797 0.5934 -0.2412
v 0.7038 0.6500 -0.0487
v 0.6815 0.7066 -0.0414
v 0.6277 0.7300 -0.0240
v 0.5739 0.7066 -0.0065
v 0.5516 0.6500 0.0008
v 0.5739 0.5934 -0.0065
v 0.6277 0.5700 -0.0240
v 0.6815 0.5934 -0.0414
v -0.0300 0.6400 -0.0200
v 0.0300 0.6400 -0.0200
v 0.0300 0.7000 -0.0200
v -0.0300 0.7000 -0.0200
v -0.0300 0.6400 0.4800
v 0.0300 0.6400 0.4800
v 0.0300 0.7000 0.4800
v -0.0300 0.7000 0.4800
g painted_metal
usemtl painted_metal
f 1 3 4 2
f 3 5 6 4
f 5 7 8 6
f 7 9 10 8
f 9 11 12 10
f 11 13 14 12
f 13 15 16 14
f 15 17 18 16
f 17 19 20 18
f 19 21 22 20
f 21 23 24 22
f 23 25 26 24
f 25 27 28 26
f 27 29 30 28
f 29 31 32 30
f 31 1 2 32
f 31 29 27 25 23 21 19 17 15 13 11 9 7 5 3 1
f 2 4 6 8 10 12 14 16 18 20 22 24 26 28 30 32
g brass
usemtl brass
f 33 41 42 34
f 34 42 43 35
f 35 43 44 36
f 36 44 45 37
f 37 45 46 38
f 38 46 47 39
f 39 47 48 40
f 40 48 41 33
f 41 49 50 42
f 42 50 51 43
f 43 51 52 44
f 44 52 53 45
f 45 53 54 46
f 46 54 55 47
f 47 55 56 48
f 48 56 49 41
f 49 57 58 50
f 50 58 59 51
f 51 59 60 52
f 52 60 61 53
f 53 61 62 54
f 54 62 63 55
f 55 63 64 56
f 56 64 57 49
f 57 65 66 58
f 58 66 67 59
f 59 67 68 60
f 60 68 69 61
f 61 69 70 62
f 62 70 71 63
f 63 71 72 64
f 64 72 65 57
f 65 73 74 66
f 66 74 75 67
f 67 75 76 68
f 68 76 77 69
f 69 77 78 70
f 70 78 79 71
f 71 79 80 72
f 72 80 73 65
f 73 81 82 74
f 74 82 83 75
f 75 83 84 76
f 76 84 85 77
f 77 85 86 78
f 78 86 87 79
f 79 87 88 80
f 80 88 81 73
f 81 89 90 82
f 82 90 91 83
f 83 91 92 84
f 84 92 93 85
f 85 93 94 86
f 86 94 95 87
f 87 95 96 88
f 88 96 89 81
f 89 97 98 90
f 90 98 99 91
f 91 99 100 92
f 92 100 101 93
f 93 101 102 94
f 94 102 103 95
f 95 103 104 96
f 96 104 97 89
f 97 105 106 98
f 98 106 107 99
f 99 107 108 100
f 100 108 109 101
f 101 109 110 102
f 102 110 111 103
f 103 111 112 104
f 104 112 105 97
f 105 113 114 106
f 106 114 115 107
f 107 115 116 108
f 108 116 117 109
f 109 117 118 110
f 110 118 119 111
f 111 119 120 112
f 112 120 113 105
f 113 121 122 114
f 114 122 123 115
f 115 123 124 116
f 116 124 125 117
f 117 125 126 118
f 118 126 127 119
f 119 127 128 120
f 120 128 121 113
f 121 129 130 122
f 122 130 131 123
f 123 131 132 124
f 124 132 133 125
f 125 133 134 126
f 126 134 135 127
f 127 135 136 128
f 128 136 129 121
f 129 137 138 130
f 130 138 139 131
f 131 139 140 132
f 132 140 141 133
f 133 141 142 134
f 134 142 143 135
f 135 143 144 136
f 136 144 137 129
f 137 145 146 138
f 138 146 147 139
f 139 147 148 140
f 140 148 149 141
f 141 149 150 142
f 142 150 151 143
f 143 151 152 144
f 144 152 145 137
f 145 153 154 146
f 146 154 155 147
f 147 155 156 148
f 148 156 157 149
f 149 157 158 150
f 150 158 159 151
f 151 159 160 152
f 152 160 153 145
f 153 161 162 154
f 154 162 163 155
f 155 163 164 156
f 156 164 165 157
f 157 165 166 158
f 158 166 167 159
f 159 167 168 160
f 160 168 161 153
f 161 169 170 162
f 162 170 171 163
f 163 171 172 164
f 164 172 173 165
f 165 173 174 166
f 166 174 175 167
f 167 175 176 168
f 168 176 169 161
f 169 177 178 170
f 170 178 179 171
f 171 179 180 172
f 172 180 181 173
f 173 181 182 174
f 174 182 183 175
f 175 183 184 176
f 176 184 177 169
f 177 185 186 178
f 178 186 187 179
f 179 187 188 180
f 180 188 189 181
f 181 189 190 182
f 182 190 191 183
f 183 191 192 184
f 184 192 185 177
f 185 33 34 186
f 186 34 35 187
f 187 35 36 188
f 188 36 37 189
f 189 37 38 190
f 190 38 39 191
f 191 39 40 192
f 192 40 33 185
f 193 194 195 196
f 197 200 199 198
f 193 197 198 194
f 194 198 199 195
f 195 199 200 196
f 197 193 196 200
