# Procedural original R2 mesh: CeramicVase
mtllib materials.mtl
v 0.7000 0.0500 0.0000
v 0.7000 1.7500 0.0000
v 0.6578 0.0500 0.2394
v 0.6578 1.7500 0.2394
v 0.5362 0.0500 0.4500
v 0.5362 1.7500 0.4500
v 0.3500 0.0500 0.6062
v 0.3500 1.7500 0.6062
v 0.1216 0.0500 0.6894
v 0.1216 1.7500 0.6894
v -0.1216 0.0500 0.6894
v -0.1216 1.7500 0.6894
v -0.3500 0.0500 0.6062
v -0.3500 1.7500 0.6062
v -0.5362 0.0500 0.4500
v -0.5362 1.7500 0.4500
v -0.6578 0.0500 0.2394
v -0.6578 1.7500 0.2394
v -0.7000 0.0500 0.0000
v -0.7000 1.7500 0.0000
v -0.6578 0.0500 -0.2394
v -0.6578 1.7500 -0.2394
v -0.5362 0.0500 -0.4500
v -0.5362 1.7500 -0.4500
v -0.3500 0.0500 -0.6062
v -0.3500 1.7500 -0.6062
v -0.1216 0.0500 -0.6894
v -0.1216 1.7500 -0.6894
v 0.1216 0.0500 -0.6894
v 0.1216 1.7500 -0.6894
v 0.3500 0.0500 -0.6062
v 0.3500 1.7500 -0.6062
v 0.5362 0.0500 -0.4500
v 0.5362 1.7500 -0.4500
v 0.6578 0.0500 -0.2394
v 0.6578 1.7500 -0.2394
v 0.5000 1.7600 0.0000
v 0.4649 1.8449 0.0000
v 0.3800 1.8800 0.0000
v 0.2951 1.8449 0.0000
v 0.2600 1.7600 0.0000
v 0.2951 1.6751 0.0000
v 0.3800 1.6400 0.0000
v 0.4649 1.6751 0.0000
v 0.4755 1.7600 0.1545
v 0.4421 1.8449 0.1436
v 0.3614 1.8800 0.1174
v 0.2807 1.8449 0.0912
v 0.2473 1.7600 0.0803
v 0.2807 1.6751 0.0912
v 0.3614 1.6400 0.1174
v 0.4421 1.6751 0.1436
v 0.4045 1.7600 0.2939
v 0.3761 1.8449 0.2732
v 0.3074 1.8800 0.2234
v 0.2388 1.8449 0.1735
v 0.2103 1.7600 0.1528
v 0.2388 1.6751 0.1735
v 0.3074 1.6400 0.2234
v 0.3761 1.6751 0.2732
v 0.2939 1.7600 0.4045
v 0.2732 1.8449 0.3761
v 0.2234 1.8800 0.3074
v 0.1735 1.8449 0.2388
v 0.1528 1.7600 0.2103
v 0.1735 1.6751 0.2388
v 0.2234 1.6400 0.3074
v 0.2732 1.6751 0.3761
v 0.1545 1.7600 0.4755
v 0.1436 1.8449 0.4421
v 0.1174 1.8800 0.3614
v 0.0912 1.8449 0.2807
v 0.0803 1.7600 0.2473
v 0.0912 1.6751 0.2807
v 0.1174 1.6400 0.3614
v 0.1436 1.6751 0.4421
v 0.0000 1.7600 0.5000
v 0.0000 1.8449 0.4649
v 0.0000 1.8800 0.3800
v 0.0000 1.8449 0.2951
v 0.0000 1.7600 0.2600
v 0.0000 1.6751 0.2951
v 0.0000 1.6400 0.3800
v 0.0000 1.6751 0.4649
v -0.1545 1.7600 0.4755
v -0.1436 1.8449 0.4421
v -0.1174 1.8800 0.3614
v -0.0912 1.8449 0.2807
v -0.0803 1.7600 0.2473
v -0.0912 1.6751 0.2807
v -0.1174 1.6400 0.3614
v -0.1436 1.6751 0.4421
v -0.2939 1.7600 0.4045
v -0.2732 1.8449 0.3761
v -0.2234 1.8800 0.3074
v -0.1735 1.8449 0.2388
v -0.1528 1.7600 0.2103
v -0.1735 1.6751 0.2388
v -0.2234 1.6400 0.3074
v -0.2732 1.6751 0.3761
v -0.4045 1.7600 0.2939
v -0.3761 1.8449 0.2732
v -0.3074 1.8800 0.2234
v -0.2388 1.8449 0.1735
v -0.2103 1.7600 0.1528
v -0.2388 1.6751 0.1735
v -0.3074 1.6400 0.2234
v -0.3761 1.6751 0.2732
v -0.4755 1.7600 0.1545
v -0.4421 1.8449 0.1436
v -0.3614 1.8800 0.1174
v -0.2807 1.8449 0.0912
v -0.2473 1.7600 0.0803
v -0.2807 1.6751 0.0912
v -0.3614 1.6400 0.1174
v -0.4421 1.6751 0.1436
v -0.5000 1.7600 0.0000
v -0.4649 1.8449 0.0000
v -0.3800 1.8800 0.0000
v -0.2951 1.8449 0.0000
v -0.2600 1.7600 0.0000
v -0.2951 1.6751 0.0000
v -0.3800 1.6400 0.0000
v -0.4649 1.6751 0.0000
v -0.4755 1.7600 -0.1545
v -0.4421 1.8449 -0.1436
v -0.3614 1.8800 -0.1174
v -0.2807 1.8449 -0.0912
v -0.2473 1.7600 -0.0803
v -0.2807 1.6751 -0.0912
v -0.3614 1.6400 -0.1174
v -0.4421 1.6751 -0.1436
v -0.4045 1.7600 -0.2939
v -0.3761 1.8449 -0.2732
v -0.3074 1.8800 -0.2234
v -0.2388 1.8449 -0.1735
v -0.2103 1.7600 -0.1528
v -0.2388 1.6751 -0.1735
v -0.3074 1.6400 -0.2234
v -0.3761 1.6751 -0.2732
v -0.2939 1.7600 -0.4045
v -0.2732 1.8449 -0.3761
v -0.2234 1.8800 -0.3074
v -0.1735 1.8449 -0.2388
v -0.1528 1.7600 -0.2103
v -0.1735 1.6751 -0.2388
v -0.2234 1.6400 -0.3074
v -0.2732 1.6751 -0.3761
v -0.1545 1.7600 -0.4755
v -0.1436 1.8449 -0.4421
v -0.1174 1.8800 -0.3614
v -0.0912 1.8449 -0.2807
v -0.0803 1.7600 -0.2473
v -0.0912 1.6751 -0.2807
v -0.1174 1.6400 -0.3614
v -0.1436 1.6751 -0.4421
v -0.0000 1.7600 -0.5000
v -0.0000 1.8449 -0.4649
v -0.0000 1.8800 -0.3800
v -0.0000 1.8449 -0.2951
v -0.0000 1.7600 -0.2600
v -0.0000 1.6751 -0.2951
v -0.0000 1.6400 -0.3800
v -0.0000 1.6751 -0.4649
v 0.1545 1.7600 -0.4755
v 0.1436 1.8449 -0.4421
v 0.1174 1.8800 -0.3614
v 0.0912 1.8449 -0.2807
v 0.0803 1.7600 -0.2473
v 0.0912 1.6751 -0.2807
v 0.1174 1.6400 -0.3614
v 0.1436 1.6751 -0.4421
v 0.2939 1.7600 -0.4045
v 0.2732 1.8449 -0.3761
v 0.2234 1.8800 -0.3074
v 0.1735 1.8449 -0.2388
v 0.1528 1.7600 -0.2103
v 0.1735 1.6751 -0.2388
v 0.2234 1.6400 -0.3074
v 0.2732 1.6751 -0.3761
v 0.4045 1.7600 -0.2939
v 0.3761 1.8449 -0.2732
v 0.3074 1.8800 -0.2234
v 0.2388 1.8449 -0.1735
v 0.2103 1.7600 -0.1528
v 0.2388 1.6751 -0.1735
v 0.3074 1.6400 -0.2234
v 0.3761 1.6751 -0.2732
v 0.4755 1.7600 -0.1545
v 0.4421 1.8449 -0.1436
v 0.3614 1.8800 -0.1174
v 0.2807 1.8449 -0.0912
v 0.2473 1.7600 -0.0803
v 0.2807 1.6751 -0.0912
v 0.3614 1.6400 -0.1174
v 0.4421 1.6751 -0.1436
v 0.6300 0.1000 0.0000
v 0.6066 0.1566 0.0000
v 0.5500 0.1800 0.0000
v 0.4934 0.1566 0.0000
v 0.4700 0.1000 0.0000
v 0.4934 0.0434 0.0000
v 0.5500 0.0200 0.0000
v 0.6066 0.0434 0.0000
v 0.5992 0.1000 0.1947
v 0.5769 0.1566 0.1874
v 0.5231 0.1800 0.1700
v 0.4693 0.1566 0.1525
v 0.4470 0.1000 0.1452
v 0.4693 0.0434 0.1525
v 0.5231 0.0200 0.1700
v 0.5769 0.0434 0.1874
v 0.5097 0.1000 0.3703
v 0.4907 0.1566 0.3565
v 0.4450 0.1800 0.3233
v 0.3992 0.1566 0.2900
v 0.3802 0.1000 0.2763
v 0.3992 0.0434 0.2900
v 0.4450 0.0200 0.3233
v 0.4907 0.0434 0.3565
v 0.3703 0.1000 0.5097
v 0.3565 0.1566 0.4907
v 0.3233 0.1800 0.4450
v 0.2900 0.1566 0.3992
v 0.2763 0.1000 0.3802
v 0.2900 0.0434 0.3992
v 0.3233 0.0200 0.4450
v 0.3565 0.0434 0.4907
v 0.1947 0.1000 0.5992
v 0.1874 0.1566 0.5769
v 0.1700 0.1800 0.5231
v 0.1525 0.1566 0.4693
v 0.1452 0.1000 0.4470
v 0.1525 0.0434 0.4693
v 0.1700 0.0200 0.5231
v 0.1874 0.0434 0.5769
v 0.0000 0.1000 0.6300
v 0.0000 0.1566 0.6066
v 0.0000 0.1800 0.5500
v 0.0000 0.1566 0.4934
v 0.0000 0.1000 0.4700
v 0.0000 0.0434 0.4934
v 0.0000 0.0200 0.5500
v 0.0000 0.0434 0.6066
v -0.1947 0.1000 0.5992
v -0.1874 0.1566 0.5769
v -0.1700 0.1800 0.5231
v -0.1525 0.1566 0.4693
v -0.1452 0.1000 0.4470
v -0.1525 0.0434 0.4693
v -0.1700 0.0200 0.5231
v -0.1874 0.0434 0.5769
v -0.3703 0.1000 0.5097
v -0.3565 0.1566 0.4907
v -0.3233 0.1800 0.4450
v -0.2900 0.1566 0.3992
v -0.2763 0.1000 0.3802
v -0.2900 0.0434 0.3992
v -0.3233 0.0200 0.4450
v -0.3565 0.0434 0.4907
v -0.5097 0.1000 0.3703
v -0.4907 0.1566 0.3565
v -0.4450 0.1800 0.3233
v -0.3992 0.1566 0.2900
v -0.3802 0.1000 0.2763
v -0.3992 0.0434 0.2900
v -0.4450 0.0200 0.3233
v -0.4907 0.0434 0.3565
v -0.5992 0.1000 0.1947
v -0.5769 0.1566 0.1874
v -0.5231 0.1800 0.1700
v -0.4693 0.1566 0.1525
v -0.4470 0.1000 0.1452
v -0.4693 0.0434 0.1525
v -0.5231 0.0200 0.1700
v -0.5769 0.0434 0.1874
v -0.6300 0.1000 0.0000
v -0.6066 0.1566 0.0000
v -0.5500 0.1800 0.0000
v -0.4934 0.1566 0.0000
v -0.4700 0.1000 0.0000
v -0.4934 0.0434 0.0000
v -0.5500 0.0200 0.0000
v -0.6066 0.0434 0.0000
v -0.5992 0.1000 -0.1947
v -0.5769 0.1566 -0.1874
v -0.5231 0.1800 -0.1700
v -0.4693 0.1566 -0.1525
v -0.4470 0.1000 -0.1452
v -0.4693 0.0434 -0.1525
v -0.5231 0.0200 -0.1700
v -0.5769 0.0434 -0.1874
v -0.5097 0.1000 -0.3703
v -0.4907 0.1566 -0.3565
v -0.4450 0.1800 -0.3233
v -0.3992 0.1566 -0.2900
v -0.3802 0.1000 -0.2763
v -0.3992 0.0434 -0.2900
v -0.4450 0.0200 -0.3233
v -0.4907 0.0434 -0.3565
v -0.3703 0.1000 -0.5097
v -0.3565 0.1566 -0.4907
v -0.3233 0.1800 -0.4450
v -0.2900 0.1566 -0.3992
v -0.2763 0.1000 -0.3802
v -0.2900 0.0434 -0.3992
v -0.3233 0.0200 -0.4450
v -0.3565 0.0434 -0.4907
v -0.1947 0.1000 -0.5992
v -0.1874 0.1566 -0.5769
v -0.1700 0.1800 -0.5231
v -0.1525 0.1566 -0.4693
v -0.1452 0.1000 -0.4470
v -0.1525 0.0434 -0.4693
v -0.1700 0.0200 -0.5231
v -0.1874 0.0434 -0.5769
v -0.0000 0.1000 -0.6300
v -0.0000 0.1566 -0.6066
v -0.0000 0.1800 -0.5500
v -0.0000 0.1566 -0.4934
v -0.0000 0.1000 -0.4700
v -0.0000 0.0434 -0.4934
v -0.0000 0.0200 -0.5500
v -0.0000 0.0434 -0.6066
v 0.1947 0.1000 -0.5992
v 0.1874 0.1566 -0.5769
v 0.1700 0.1800 -0.5231
v 0.1525 0.1566 -0.4693
v 0.1452 0.1000 -0.4470
v 0.1525 0.0434 -0.4693
v 0.1700 0.0200 -0.5231
v 0.1874 0.0434 -0.5769
v 0.3703 0.1000 -0.5097
v 0.3565 0.1566 -0.4907
v 0.3233 0.1800 -0.4450
v 0.2900 0.1566 -0.3992
v 0.2763 0.1000 -0.3802
v 0.2900 0.0434 -0.3992
v 0.3233 0.0200 -0.4450
v 0.3565 0.0434 -0.4907
v 0.5097 0.1000 -0.3703
v 0.4907 0.1566 -0.3565
v 0.4450 0.1800 -0.3233
v 0.3992 0.1566 -0.2900
v 0.3802 0.1000 -0.2763
v 0.3992 0.0434 -0.2900
v 0.4450 0.0200 -0.3233
v 0.4907 0.0434 -0.3565
v 0.5992 0.1000 -0.1947
v 0.5769 0.1566 -0.1874
v 0.5231 0.1800 -0.1700
v 0.4693 0.1566 -0.1525
v 0.4470 0.1000 -0.1452
v 0.4693 0.0434 -0.1525
v 0.5231 0.0200 -0.1700
v 0.5769 0.0434 -0.1874
g ivory
usemtl ivory
f 1 3 4 2
f 3 5 6 4
f 5 7 8 6
f 7 9 10 8
f 9 11 12 10
f 11 13 14 12
f 13 15 16 14
f 15 17 18 16
f 17 19 20 18
f 19 21 22 20
f 21 23 24 22
f 23 25 26 24
f 25 27 28 26
f 27 29 30 28
f 29 31 32 30
f 31 33 34 32
f 33 35 36 34
f 35 1 2 36
f 35 33 31 29 27 25 23 21 19 17 15 13 11 9 7 5 3 1
f 2 4 6 8 10 12 14 16 18 20 22 24 26 28 30 32 34 36
g brass
usemtl brass
f 37 45 46 38
f 38 46 47 39
f 39 47 48 40
f 40 48 49 41
f 41 49 50 42
f 42 50 51 43
f 43 51 52 44
f 44 52 45 37
f 45 53 54 46
f 46 54 55 47
f 47 55 56 48
f 48 56 57 49
f 49 57 58 50
f 50 58 59 51
f 51 59 60 52
f 52 60 53 45
f 53 61 62 54
f 54 62 63 55
f 55 63 64 56
f 56 64 65 57
f 57 65 66 58
f 58 66 67 59
f 59 67 68 60
f 60 68 61 53
f 61 69 70 62
f 62 70 71 63
f 63 71 72 64
f 64 72 73 65
f 65 73 74 66
f 66 74 75 67
f 67 75 76 68
f 68 76 69 61
f 69 77 78 70
f 70 78 79 71
f 71 79 80 72
f 72 80 81 73
f 73 81 82 74
f 74 82 83 75
f 75 83 84 76
f 76 84 77 69
f 77 85 86 78
f 78 86 87 79
f 79 87 88 80
f 80 88 89 81
f 81 89 90 82
f 82 90 91 83
f 83 91 92 84
f 84 92 85 77
f 85 93 94 86
f 86 94 95 87
f 87 95 96 88
f 88 96 97 89
f 89 97 98 90
f 90 98 99 91
f 91 99 100 92
f 92 100 93 85
f 93 101 102 94
f 94 102 103 95
f 95 103 104 96
f 96 104 105 97
f 97 105 106 98
f 98 106 107 99
f 99 107 108 100
f 100 108 101 93
f 101 109 110 102
f 102 110 111 103
f 103 111 112 104
f 104 112 113 105
f 105 113 114 106
f 106 114 115 107
f 107 115 116 108
f 108 116 109 101
f 109 117 118 110
f 110 118 119 111
f 111 119 120 112
f 112 120 121 113
f 113 121 122 114
f 114 122 123 115
f 115 123 124 116
f 116 124 117 109
f 117 125 126 118
f 118 126 127 119
f 119 127 128 120
f 120 128 129 121
f 121 129 130 122
f 122 130 131 123
f 123 131 132 124
f 124 132 125 117
f 125 133 134 126
f 126 134 135 127
f 127 135 136 128
f 128 136 137 129
f 129 137 138 130
f 130 138 139 131
f 131 139 140 132
f 132 140 133 125
f 133 141 142 134
f 134 142 143 135
f 135 143 144 136
f 136 144 145 137
f 137 145 146 138
f 138 146 147 139
f 139 147 148 140
f 140 148 141 133
f 141 149 150 142
f 142 150 151 143
f 143 151 152 144
f 144 152 153 145
f 145 153 154 146
f 146 154 155 147
f 147 155 156 148
f 148 156 149 141
f 149 157 158 150
f 150 158 159 151
f 151 159 160 152
f 152 160 161 153
f 153 161 162 154
f 154 162 163 155
f 155 163 164 156
f 156 164 157 149
f 157 165 166 158
f 158 166 167 159
f 159 167 168 160
f 160 168 169 161
f 161 169 170 162
f 162 170 171 163
f 163 171 172 164
f 164 172 165 157
f 165 173 174 166
f 166 174 175 167
f 167 175 176 168
f 168 176 177 169
f 169 177 178 170
f 170 178 179 171
f 171 179 180 172
f 172 180 173 165
f 173 181 182 174
f 174 182 183 175
f 175 183 184 176
f 176 184 185 177
f 177 185 186 178
f 178 186 187 179
f 179 187 188 180
f 180 188 181 173
f 181 189 190 182
f 182 190 191 183
f 183 191 192 184
f 184 192 193 185
f 185 193 194 186
f 186 194 195 187
f 187 195 196 188
f 188 196 189 181
f 189 37 38 190
f 190 38 39 191
f 191 39 40 192
f 192 40 41 193
f 193 41 42 194
f 194 42 43 195
f 195 43 44 196
f 196 44 37 189
f 197 205 206 198
f 198 206 207 199
f 199 207 208 200
f 200 208 209 201
f 201 209 210 202
f 202 210 211 203
f 203 211 212 204
f 204 212 205 197
f 205 213 214 206
f 206 214 215 207
f 207 215 216 208
f 208 216 217 209
f 209 217 218 210
f 210 218 219 211
f 211 219 220 212
f 212 220 213 205
f 213 221 222 214
f 214 222 223 215
f 215 223 224 216
f 216 224 225 217
f 217 225 226 218
f 218 226 227 219
f 219 227 228 220
f 220 228 221 213
f 221 229 230 222
f 222 230 231 223
f 223 231 232 224
f 224 232 233 225
f 225 233 234 226
f 226 234 235 227
f 227 235 236 228
f 228 236 229 221
f 229 237 238 230
f 230 238 239 231
f 231 239 240 232
f 232 240 241 233
f 233 241 242 234
f 234 242 243 235
f 235 243 244 236
f 236 244 237 229
f 237 245 246 238
f 238 246 247 239
f 239 247 248 240
f 240 248 249 241
f 241 249 250 242
f 242 250 251 243
f 243 251 252 244
f 244 252 245 237
f 245 253 254 246
f 246 254 255 247
f 247 255 256 248
f 248 256 257 249
f 249 257 258 250
f 250 258 259 251
f 251 259 260 252
f 252 260 253 245
f 253 261 262 254
f 254 262 263 255
f 255 263 264 256
f 256 264 265 257
f 257 265 266 258
f 258 266 267 259
f 259 267 268 260
f 260 268 261 253
f 261 269 270 262
f 262 270 271 263
f 263 271 272 264
f 264 272 273 265
f 265 273 274 266
f 266 274 275 267
f 267 275 276 268
f 268 276 269 261
f 269 277 278 270
f 270 278 279 271
f 271 279 280 272
f 272 280 281 273
f 273 281 282 274
f 274 282 283 275
f 275 283 284 276
f 276 284 277 269
f 277 285 286 278
f 278 286 287 279
f 279 287 288 280
f 280 288 289 281
f 281 289 290 282
f 282 290 291 283
f 283 291 292 284
f 284 292 285 277
f 285 293 294 286
f 286 294 295 287
f 287 295 296 288
f 288 296 297 289
f 289 297 298 290
f 290 298 299 291
f 291 299 300 292
f 292 300 293 285
f 293 301 302 294
f 294 302 303 295
f 295 303 304 296
f 296 304 305 297
f 297 305 306 298
f 298 306 307 299
f 299 307 308 300
f 300 308 301 293
f 301 309 310 302
f 302 310 311 303
f 303 311 312 304
f 304 312 313 305
f 305 313 314 306
f 306 314 315 307
f 307 315 316 308
f 308 316 309 301
f 309 317 318 310
f 310 318 319 311
f 311 319 320 312
f 312 320 321 313
f 313 321 322 314
f 314 322 323 315
f 315 323 324 316
f 316 324 317 309
f 317 325 326 318
f 318 326 327 319
f 319 327 328 320
f 320 328 329 321
f 321 329 330 322
f 322 330 331 323
f 323 331 332 324
f 324 332 325 317
f 325 333 334 326
f 326 334 335 327
f 327 335 336 328
f 328 336 337 329
f 329 337 338 330
f 330 338 339 331
f 331 339 340 332
f 332 340 333 325
f 333 341 342 334
f 334 342 343 335
f 335 343 344 336
f 336 344 345 337
f 337 345 346 338
f 338 346 347 339
f 339 347 348 340
f 340 348 341 333
f 341 349 350 342
f 342 350 351 343
f 343 351 352 344
f 344 352 353 345
f 345 353 354 346
f 346 354 355 347
f 347 355 356 348
f 348 356 349 341
f 349 197 198 350
f 350 198 199 351
f 351 199 200 352
f 352 200 201 353
f 353 201 202 354
f 354 202 203 355
f 355 203 204 356
f 356 204 197 349
