# Procedural original R2 mesh: compass
mtllib materials.mtl
v 0.7200 0.3750 0.0000
v 0.7200 0.6250 0.0000
v 0.6652 0.3750 0.2755
v 0.6652 0.6250 0.2755
v 0.5091 0.3750 0.5091
v 0.5091 0.6250 0.5091
v 0.2755 0.3750 0.6652
v 0.2755 0.6250 0.6652
v 0.0000 0.3750 0.7200
v 0.0000 0.6250 0.7200
v -0.2755 0.3750 0.6652
v -0.2755 0.6250 0.6652
v -0.5091 0.3750 0.5091
v -0.5091 0.6250 0.5091
v -0.6652 0.3750 0.2755
v -0.6652 0.6250 0.2755
v -0.7200 0.3750 0.0000
v -0.7200 0.6250 0.0000
v -0.6652 0.3750 -0.2755
v -0.6652 0.6250 -0.2755
v -0.5091 0.3750 -0.5091
v -0.5091 0.6250 -0.5091
v -0.2755 0.3750 -0.6652
v -0.2755 0.6250 -0.6652
v -0.0000 0.3750 -0.7200
v -0.0000 0.6250 -0.7200
v 0.2755 0.3750 -0.6652
v 0.2755 0.6250 -0.6652
v 0.5091 0.3750 -0.5091
v 0.5091 0.6250 -0.5091
v 0.6652 0.3750 -0.2755
v 0.6652 0.6250 -0.2755
v 0.5500 0.6300 0.0000
v 0.5500 0.6700 0.0000
v 0.5081 0.6300 0.2105
v 0.5081 0.6700 0.2105
v 0.3889 0.6300 0.3889
v 0.3889 0.6700 0.3889
v 0.2105 0.6300 0.5081
v 0.2105 0.6700 0.5081
v 0.0000 0.6300 0.5500
v 0.0000 0.6700 0.5500
v -0.2105 0.6300 0.5081
v -0.2105 0.6700 0.5081
v -0.3889 0.6300 0.3889
v -0.3889 0.6700 0.3889
v -0.5081 0.6300 0.2105
v -0.5081 0.6700 0.2105
v -0.5500 0.6300 0.0000
v -0.5500 0.6700 0.0000
v -0.5081 0.6300 -0.2105
v -0.5081 0.6700 -0.2105
v -0.3889 0.6300 -0.3889
v -0.3889 0.6700 -0.3889
v -0.2105 0.6300 -0.5081
v -0.2105 0.6700 -0.5081
v -0.0000 0.6300 -0.5500
v -0.0000 0.6700 -0.5500
v 0.2105 0.6300 -0.5081
v 0.2105 0.6700 -0.5081
v 0.3889 0.6300 -0.3889
v 0.3889 0.6700 -0.3889
v 0.5081 0.6300 -0.2105
v 0.5081 0.6700 -0.2105
v -0.0300 0.6500 -0.2400
v 0.0300 0.6500 -0.2400
v 0.0300 0.7100 -0.2400
v -0.0300 0.7100 -0.2400
v -0.0300 0.6500 0.2400
v 0.0300 0.6500 0.2400
v 0.0300 0.7100 0.2400
v -0.0300 0.7100 0.2400
g brass
usemtl brass
f 1 3 4 2
f 3 5 6 4
f 5 7 8 6
f 7 9 10 8
f 9 11 12 10
f 11 13 14 12
f 13 15 16 14
f 15 17 18 16
f 17 19 20 18
f 19 21 22 20
f 21 23 24 22
f 23 25 26 24
f 25 27 28 26
f 27 29 30 28
f 29 31 32 30
f 31 1 2 32
f 31 29 27 25 23 21 19 17 15 13 11 9 7 5 3 1
f 2 4 6 8 10 12 14 16 18 20 22 24 26 28 30 32
g glass
usemtl glass
f 33 35 36 34
f 35 37 38 36
f 37 39 40 38
f 39 41 42 40
f 41 43 44 42
f 43 45 46 44
f 45 47 48 46
f 47 49 50 48
f 49 51 52 50
f 51 53 54 52
f 53 55 56 54
f 55 57 58 56
f 57 59 60 58
f 59 61 62 60
f 61 63 64 62
f 63 33 34 64
f 63 61 59 57 55 53 51 49 47 45 43 41 39 37 35 33
f 34 36 38 40 42 44 46 48 50 52 54 56 58 60 62 64
g brass
usemtl brass
f 65 66 67 68
f 69 72 71 70
f 65 69 70 66
f 66 70 71 67
f 67 71 72 68
f 69 65 68 72
