# Procedural original R2 mesh: PocketWatch
mtllib materials.mtl
v 0.8200 -0.1500 0.0000
v 0.8200 0.1500 0.0000
v 0.7576 -0.1500 0.3138
v 0.7576 0.1500 0.3138
v 0.5798 -0.1500 0.5798
v 0.5798 0.1500 0.5798
v 0.3138 -0.1500 0.7576
v 0.3138 0.1500 0.7576
v 0.0000 -0.1500 0.8200
v 0.0000 0.1500 0.8200
v -0.3138 -0.1500 0.7576
v -0.3138 0.1500 0.7576
v -0.5798 -0.1500 0.5798
v -0.5798 0.1500 0.5798
v -0.7576 -0.1500 0.3138
v -0.7576 0.1500 0.3138
v -0.8200 -0.1500 0.0000
v -0.8200 0.1500 0.0000
v -0.7576 -0.1500 -0.3138
v -0.7576 0.1500 -0.3138
v -0.5798 -0.1500 -0.5798
v -0.5798 0.1500 -0.5798
v -0.3138 -0.1500 -0.7576
v -0.3138 0.1500 -0.7576
v -0.0000 -0.1500 -0.8200
v -0.0000 0.1500 -0.8200
v 0.3138 -0.1500 -0.7576
v 0.3138 0.1500 -0.7576
v 0.5798 -0.1500 -0.5798
v 0.5798 0.1500 -0.5798
v 0.7576 -0.1500 -0.3138
v 0.7576 0.1500 -0.3138
v 0.7700 0.0000 0.1800
v 0.7436 0.0636 0.1800
v 0.6800 0.0900 0.1800
v 0.6164 0.0636 0.1800
v 0.5900 0.0000 0.1800
v 0.6164 -0.0636 0.1800
v 0.6800 -0.0900 0.1800
v 0.7436 -0.0636 0.1800
v 0.7323 0.0000 0.4179
v 0.7072 0.0636 0.4098
v 0.6467 0.0900 0.3901
v 0.5862 0.0636 0.3705
v 0.5611 0.0000 0.3623
v 0.5862 -0.0636 0.3705
v 0.6467 -0.0900 0.3901
v 0.7072 -0.0636 0.4098
v 0.6229 0.0000 0.6326
v 0.6016 0.0636 0.6171
v 0.5501 0.0900 0.5797
v 0.4986 0.0636 0.5423
v 0.4773 0.0000 0.5268
v 0.4986 -0.0636 0.5423
v 0.5501 -0.0900 0.5797
v 0.6016 -0.0636 0.6171
v 0.4526 0.0000 0.8029
v 0.4371 0.0636 0.7816
v 0.3997 0.0900 0.7301
v 0.3623 0.0636 0.6786
v 0.3468 0.0000 0.6573
v 0.3623 -0.0636 0.6786
v 0.3997 -0.0900 0.7301
v 0.4371 -0.0636 0.7816
v 0.2379 0.0000 0.9123
v 0.2298 0.0636 0.8872
v 0.2101 0.0900 0.8267
v 0.1905 0.0636 0.7662
v 0.1823 0.0000 0.7411
v 0.1905 -0.0636 0.7662
v 0.2101 -0.0900 0.8267
v 0.2298 -0.0636 0.8872
v 0.0000 0.0000 0.9500
v 0.0000 0.0636 0.9236
v 0.0000 0.0900 0.8600
v 0.0000 0.0636 0.7964
v 0.0000 0.0000 0.7700
v 0.0000 -0.0636 0.7964
v 0.0000 -0.0900 0.8600
v 0.0000 -0.0636 0.9236
v -0.2379 0.0000 0.9123
v -0.2298 0.0636 0.8872
v -0.2101 0.0900 0.8267
v -0.1905 0.0636 0.7662
v -0.1823 0.0000 0.7411
v -0.1905 -0.0636 0.7662
v -0.2101 -0.0900 0.8267
v -0.2298 -0.0636 0.8872
v -0.4526 0.0000 0.8029
v -0.4371 0.0636 0.7816
v -0.3997 0.0900 0.7301
v -0.3623 0.0636 0.6786
v -0.3468 0.0000 0.6573
v -0.3623 -0.0636 0.6786
v -0.3997 -0.0900 0.7301
v -0.4371 -0.0636 0.7816
v -0.6229 0.0000 0.6326
v -0.6016 0.0636 0.6171
v -0.5501 0.0900 0.5797
v -0.4986 0.0636 0.5423
v -0.4773 0.0000 0.5268
v -0.4986 -0.0636 0.5423
v -0.5501 -0.0900 0.5797
v -0.6016 -0.0636 0.6171
v -0.7323 0.0000 0.4179
v -0.7072 0.0636 0.4098
v -0.6467 0.0900 0.3901
v -0.5862 0.0636 0.3705
v -0.5611 0.0000 0.3623
v -0.5862 -0.0636 0.3705
v -0.6467 -0.0900 0.3901
v -0.7072 -0.0636 0.4098
v -0.7700 0.0000 0.1800
v -0.7436 0.0636 0.1800
v -0.6800 0.0900 0.1800
v -0.6164 0.0636 0.1800
v -0.5900 0.0000 0.1800
v -0.6164 -0.0636 0.1800
v -0.6800 -0.0900 0.1800
v -0.7436 -0.0636 0.1800
v -0.7323 0.0000 -0.0579
v -0.7072 0.0636 -0.0498
v -0.6467 0.0900 -0.0301
v -0.5862 0.0636 -0.0105
v -0.5611 0.0000 -0.0023
v -0.5862 -0.0636 -0.0105
v -0.6467 -0.0900 -0.0301
v -0.7072 -0.0636 -0.0498
v -0.6229 0.0000 -0.2726
v -0.6016 0.0636 -0.2571
v -0.5501 0.0900 -0.2197
v -0.4986 0.0636 -0.1823
v -0.4773 0.0000 -0.1668
v -0.4986 -0.0636 -0.1823
v -0.5501 -0.0900 -0.2197
v -0.6016 -0.0636 -0.2571
v -0.4526 0.0000 -0.4429
v -0.4371 0.0636 -0.4216
v -0.3997 0.0900 -0.3701
v -0.3623 0.0636 -0.3186
v -0.3468 0.0000 -0.2973
v -0.3623 -0.0636 -0.3186
v -0.3997 -0.0900 -0.3701
v -0.4371 -0.0636 -0.4216
v -0.2379 0.0000 -0.5523
v -0.2298 0.0636 -0.5272
v -0.2101 0.0900 -0.4667
v -0.1905 0.0636 -0.4062
v -0.1823 0.0000 -0.3811
v -0.1905 -0.0636 -0.4062
v -0.2101 -0.0900 -0.4667
v -0.2298 -0.0636 -0.5272
v -0.0000 0.0000 -0.5900
v -0.0000 0.0636 -0.5636
v -0.0000 0.0900 -0.5000
v -0.0000 0.0636 -0.4364
v -0.0000 0.0000 -0.4100
v -0.0000 -0.0636 -0.4364
v -0.0000 -0.0900 -0.5000
v -0.0000 -0.0636 -0.5636
v 0.2379 0.0000 -0.5523
v 0.2298 0.0636 -0.5272
v 0.2101 0.0900 -0.4667
v 0.1905 0.0636 -0.4062
v 0.1823 0.0000 -0.3811
v 0.1905 -0.0636 -0.4062
v 0.2101 -0.0900 -0.4667
v 0.2298 -0.0636 -0.5272
v 0.4526 0.0000 -0.4429
v 0.4371 0.0636 -0.4216
v 0.3997 0.0900 -0.3701
v 0.3623 0.0636 -0.3186
v 0.3468 0.0000 -0.2973
v 0.3623 -0.0636 -0.3186
v 0.3997 -0.0900 -0.3701
v 0.4371 -0.0636 -0.4216
v 0.6229 0.0000 -0.2726
v 0.6016 0.0636 -0.2571
v 0.5501 0.0900 -0.2197
v 0.4986 0.0636 -0.1823
v 0.4773 0.0000 -0.1668
v 0.4986 -0.0636 -0.1823
v 0.5501 -0.0900 -0.2197
v 0.6016 -0.0636 -0.2571
v 0.7323 0.0000 -0.0579
v 0.7072 0.0636 -0.0498
v 0.6467 0.0900 -0.0301
v 0.5862 0.0636 -0.0105
v 0.5611 0.0000 -0.0023
v 0.5862 -0.0636 -0.0105
v 0.6467 -0.0900 -0.0301
v 0.7072 -0.0636 -0.0498
v 0.5800 -0.0250 0.2000
v 0.5800 0.0250 0.2000
v 0.5359 -0.0250 0.4220
v 0.5359 0.0250 0.4220
v 0.4101 -0.0250 0.6101
v 0.4101 0.0250 0.6101
v 0.2220 -0.0250 0.7359
v 0.2220 0.0250 0.7359
v 0.0000 -0.0250 0.7800
v 0.0000 0.0250 0.7800
v -0.2220 -0.0250 0.7359
v -0.2220 0.0250 0.7359
v -0.4101 -0.0250 0.6101
v -0.4101 0.0250 0.6101
v -0.5359 -0.0250 0.4220
v -0.5359 0.0250 0.4220
v -0.5800 -0.0250 0.2000
v -0.5800 0.0250 0.2000
v -0.5359 -0.0250 -0.0220
v -0.5359 0.0250 -0.0220
v -0.4101 -0.0250 -0.2101
v -0.4101 0.0250 -0.2101
v -0.2220 -0.0250 -0.3359
v -0.2220 0.0250 -0.3359
v -0.0000 -0.0250 -0.3800
v -0.0000 0.0250 -0.3800
v 0.2220 -0.0250 -0.3359
v 0.2220 0.0250 -0.3359
v 0.4101 -0.0250 -0.2101
v 0.4101 0.0250 -0.2101
v 0.5359 -0.0250 -0.0220
v 0.5359 0.0250 -0.0220
v 0.1100 0.2000 0.0000
v 0.1100 0.5000 0.0000
v 0.1016 0.2000 0.0421
v 0.1016 0.5000 0.0421
v 0.0778 0.2000 0.0778
v 0.0778 0.5000 0.0778
v 0.0421 0.2000 0.1016
v 0.0421 0.5000 0.1016
v 0.0000 0.2000 0.1100
v 0.0000 0.5000 0.1100
v -0.0421 0.2000 0.1016
v -0.0421 0.5000 0.1016
v -0.0778 0.2000 0.0778
v -0.0778 0.5000 0.0778
v -0.1016 0.2000 0.0421
v -0.1016 0.5000 0.0421
v -0.1100 0.2000 0.0000
v -0.1100 0.5000 0.0000
v -0.1016 0.2000 -0.0421
v -0.1016 0.5000 -0.0421
v -0.0778 0.2000 -0.0778
v -0.0778 0.5000 -0.0778
v -0.0421 0.2000 -0.1016
v -0.0421 0.5000 -0.1016
v -0.0000 0.2000 -0.1100
v -0.0000 0.5000 -0.1100
v 0.0421 0.2000 -0.1016
v 0.0421 0.5000 -0.1016
v 0.0778 0.2000 -0.0778
v 0.0778 0.5000 -0.0778
v 0.1016 0.2000 -0.0421
v 0.1016 0.5000 -0.0421
g brass
usemtl brass
f 1 3 4 2
f 3 5 6 4
f 5 7 8 6
f 7 9 10 8
f 9 11 12 10
f 11 13 14 12
f 13 15 16 14
f 15 17 18 16
f 17 19 20 18
f 19 21 22 20
f 21 23 24 22
f 23 25 26 24
f 25 27 28 26
f 27 29 30 28
f 29 31 32 30
f 31 1 2 32
f 31 29 27 25 23 21 19 17 15 13 11 9 7 5 3 1
f 2 4 6 8 10 12 14 16 18 20 22 24 26 28 30 32
f 33 41 42 34
f 34 42 43 35
f 35 43 44 36
f 36 44 45 37
f 37 45 46 38
f 38 46 47 39
f 39 47 48 40
f 40 48 41 33
f 41 49 50 42
f 42 50 51 43
f 43 51 52 44
f 44 52 53 45
f 45 53 54 46
f 46 54 55 47
f 47 55 56 48
f 48 56 49 41
f 49 57 58 50
f 50 58 59 51
f 51 59 60 52
f 52 60 61 53
f 53 61 62 54
f 54 62 63 55
f 55 63 64 56
f 56 64 57 49
f 57 65 66 58
f 58 66 67 59
f 59 67 68 60
f 60 68 69 61
f 61 69 70 62
f 62 70 71 63
f 63 71 72 64
f 64 72 65 57
f 65 73 74 66
f 66 74 75 67
f 67 75 76 68
f 68 76 77 69
f 69 77 78 70
f 70 78 79 71
f 71 79 80 72
f 72 80 73 65
f 73 81 82 74
f 74 82 83 75
f 75 83 84 76
f 76 84 85 77
f 77 85 86 78
f 78 86 87 79
f 79 87 88 80
f 80 88 81 73
f 81 89 90 82
f 82 90 91 83
f 83 91 92 84
f 84 92 93 85
f 85 93 94 86
f 86 94 95 87
f 87 95 96 88
f 88 96 89 81
f 89 97 98 90
f 90 98 99 91
f 91 99 100 92
f 92 100 101 93
f 93 101 102 94
f 94 102 103 95
f 95 103 104 96
f 96 104 97 89
f 97 105 106 98
f 98 106 107 99
f 99 107 108 100
f 100 108 109 101
f 101 109 110 102
f 102 110 111 103
f 103 111 112 104
f 104 112 105 97
f 105 113 114 106
f 106 114 115 107
f 107 115 116 108
f 108 116 117 109
f 109 117 118 110
f 110 118 119 111
f 111 119 120 112
f 112 120 113 105
f 113 121 122 114
f 114 122 123 115
f 115 123 124 116
f 116 124 125 117
f 117 125 126 118
f 118 126 127 119
f 119 127 128 120
f 120 128 121 113
f 121 129 130 122
f 122 130 131 123
f 123 131 132 124
f 124 132 133 125
f 125 133 134 126
f 126 134 135 127
f 127 135 136 128
f 128 136 129 121
f 129 137 138 130
f 130 138 139 131
f 131 139 140 132
f 132 140 141 133
f 133 141 142 134
f 134 142 143 135
f 135 143 144 136
f 136 144 137 129
f 137 145 146 138
f 138 146 147 139
f 139 147 148 140
f 140 148 149 141
f 141 149 150 142
f 142 150 151 143
f 143 151 152 144
f 144 152 145 137
f 145 153 154 146
f 146 154 155 147
f 147 155 156 148
f 148 156 157 149
f 149 157 158 150
f 150 158 159 151
f 151 159 160 152
f 152 160 153 145
f 153 161 162 154
f 154 162 163 155
f 155 163 164 156
f 156 164 165 157
f 157 165 166 158
f 158 166 167 159
f 159 167 168 160
f 160 168 161 153
f 161 169 170 162
f 162 170 171 163
f 163 171 172 164
f 164 172 173 165
f 165 173 174 166
f 166 174 175 167
f 167 175 176 168
f 168 176 169 161
f 169 177 178 170
f 170 178 179 171
f 171 179 180 172
f 172 180 181 173
f 173 181 182 174
f 174 182 183 175
f 175 183 184 176
f 176 184 177 169
f 177 185 186 178
f 178 186 187 179
f 179 187 188 180
f 180 188 189 181
f 181 189 190 182
f 182 190 191 183
f 183 191 192 184
f 184 192 185 177
f 185 33 34 186
f 186 34 35 187
f 187 35 36 188
f 188 36 37 189
f 189 37 38 190
f 190 38 39 191
f 191 39 40 192
f 192 40 33 185
g glass
usemtl glass
f 193 195 196 194
f 195 197 198 196
f 197 199 200 198
f 199 201 202 200
f 201 203 204 202
f 203 205 206 204
f 205 207 208 206
f 207 209 210 208
f 209 211 212 210
f 211 213 214 212
f 213 215 216 214
f 215 217 218 216
f 217 219 220 218
f 219 221 222 220
f 221 223 224 222
f 223 193 194 224
f 223 221 219 217 215 213 211 209 207 205 203 201 199 197 195 193
f 194 196 198 200 202 204 206 208 210 212 214 216 218 220 222 224
g brass
usemtl brass
f 225 227 228 226
f 227 229 230 228
f 229 231 232 230
f 231 233 234 232
f 233 235 236 234
f 235 237 238 236
f 237 239 240 238
f 239 241 242 240
f 241 243 244 242
f 243 245 246 244
f 245 247 248 246
f 247 249 250 248
f 249 251 252 250
f 251 253 254 252
f 253 255 256 254
f 255 225 226 256
f 255 253 251 249 247 245 243 241 239 237 235 233 231 229 227 225
f 226 228 230 232 234 236 238 240 242 244 246 248 250 252 254 256
