# Procedural original R2 mesh: binoculars
mtllib materials.mtl
v -1.1200 1.0200 0.0000
v 0.2800 1.0200 0.0000
v -1.1200 0.9956 0.1225
v 0.2800 0.9956 0.1225
v -1.1200 0.9263 0.2263
v 0.2800 0.9263 0.2263
v -1.1200 0.8225 0.2956
v 0.2800 0.8225 0.2956
v -1.1200 0.7000 0.3200
v 0.2800 0.7000 0.3200
v -1.1200 0.5775 0.2956
v 0.2800 0.5775 0.2956
v -1.1200 0.4737 0.2263
v 0.2800 0.4737 0.2263
v -1.1200 0.4044 0.1225
v 0.2800 0.4044 0.1225
v -1.1200 0.3800 0.0000
v 0.2800 0.3800 0.0000
v -1.1200 0.4044 -0.1225
v 0.2800 0.4044 -0.1225
v -1.1200 0.4737 -0.2263
v 0.2800 0.4737 -0.2263
v -1.1200 0.5775 -0.2956
v 0.2800 0.5775 -0.2956
v -1.1200 0.7000 -0.3200
v 0.2800 0.7000 -0.3200
v -1.1200 0.8225 -0.2956
v 0.2800 0.8225 -0.2956
v -1.1200 0.9263 -0.2263
v 0.2800 0.9263 -0.2263
v -1.1200 0.9956 -0.1225
v 0.2800 0.9956 -0.1225
v -0.2800 1.0200 0.0000
v 1.1200 1.0200 0.0000
v -0.2800 0.9956 0.1225
v 1.1200 0.9956 0.1225
v -0.2800 0.9263 0.2263
v 1.1200 0.9263 0.2263
v -0.2800 0.8225 0.2956
v 1.1200 0.8225 0.2956
v -0.2800 0.7000 0.3200
v 1.1200 0.7000 0.3200
v -0.2800 0.5775 0.2956
v 1.1200 0.5775 0.2956
v -0.2800 0.4737 0.2263
v 1.1200 0.4737 0.2263
v -0.2800 0.4044 0.1225
v 1.1200 0.4044 0.1225
v -0.2800 0.3800 0.0000
v 1.1200 0.3800 0.0000
v -0.2800 0.4044 -0.1225
v 1.1200 0.4044 -0.1225
v -0.2800 0.4737 -0.2263
v 1.1200 0.4737 -0.2263
v -0.2800 0.5775 -0.2956
v 1.1200 0.5775 -0.2956
v -0.2800 0.7000 -0.3200
v 1.1200 0.7000 -0.3200
v -0.2800 0.8225 -0.2956
v 1.1200 0.8225 -0.2956
v -0.2800 0.9263 -0.2263
v 1.1200 0.9263 -0.2263
v -0.2800 0.9956 -0.1225
v 1.1200 0.9956 -0.1225
v -0.0900 0.7000 0.7200
v -0.1076 0.7000 0.7624
v -0.1500 0.7000 0.7800
v -0.1924 0.7000 0.7624
v -0.2100 0.7000 0.7200
v -0.1924 0.7000 0.6776
v -0.1500 0.7000 0.6600
v -0.1076 0.7000 0.6776
v -0.1062 0.8020 0.7200
v -0.1229 0.7965 0.7624
v -0.1632 0.7834 0.7800
v -0.2036 0.7703 0.7624
v -0.2203 0.7649 0.7200
v -0.2036 0.7703 0.6776
v -0.1632 0.7834 0.6600
v -0.1229 0.7965 0.6776
v -0.1530 0.8940 0.7200
v -0.1672 0.8836 0.7624
v -0.2016 0.8587 0.7800
v -0.2359 0.8338 0.7624
v -0.2501 0.8234 0.7200
v -0.2359 0.8338 0.6776
v -0.2016 0.8587 0.6600
v -0.1672 0.8836 0.6776
v -0.2260 0.9670 0.7200
v -0.2364 0.9528 0.7624
v -0.2613 0.9184 0.7800
v -0.2862 0.8841 0.7624
v -0.2966 0.8699 0.7200
v -0.2862 0.8841 0.6776
v -0.2613 0.9184 0.6600
v -0.2364 0.9528 0.6776
v -0.3180 1.0138 0.7200
v -0.3235 0.9971 0.7624
v -0.3366 0.9568 0.7800
v -0.3497 0.9164 0.7624
v -0.3551 0.8997 0.7200
v -0.3497 0.9164 0.6776
v -0.3366 0.9568 0.6600
v -0.3235 0.9971 0.6776
v -0.4200 1.0300 0.7200
v -0.4200 1.0124 0.7624
v -0.4200 0.9700 0.7800
v -0.4200 0.9276 0.7624
v -0.4200 0.9100 0.7200
v -0.4200 0.9276 0.6776
v -0.4200 0.9700 0.6600
v -0.4200 1.0124 0.6776
v -0.5220 1.0138 0.7200
v -0.5165 0.9971 0.7624
v -0.5034 0.9568 0.7800
v -0.4903 0.9164 0.7624
v -0.4849 0.8997 0.7200
v -0.4903 0.9164 0.6776
v -0.5034 0.9568 0.6600
v -0.5165 0.9971 0.6776
v -0.6140 0.9670 0.7200
v -0.6036 0.9528 0.7624
v -0.5787 0.9184 0.7800
v -0.5538 0.8841 0.7624
v -0.5434 0.8699 0.7200
v -0.5538 0.8841 0.6776
v -0.5787 0.9184 0.6600
v -0.6036 0.9528 0.6776
v -0.6870 0.8940 0.7200
v -0.6728 0.8836 0.7624
v -0.6384 0.8587 0.7800
v -0.6041 0.8338 0.7624
v -0.5899 0.8234 0.7200
v -0.6041 0.8338 0.6776
v -0.6384 0.8587 0.6600
v -0.6728 0.8836 0.6776
v -0.7338 0.8020 0.7200
v -0.7171 0.7965 0.7624
v -0.6768 0.7834 0.7800
v -0.6364 0.7703 0.7624
v -0.6197 0.7649 0.7200
v -0.6364 0.7703 0.6776
v -0.6768 0.7834 0.6600
v -0.7171 0.7965 0.6776
v -0.7500 0.7000 0.7200
v -0.7324 0.7000 0.7624
v -0.6900 0.7000 0.7800
v -0.6476 0.7000 0.7624
v -0.6300 0.7000 0.7200
v -0.6476 0.7000 0.6776
v -0.6900 0.7000 0.6600
v -0.7324 0.7000 0.6776
v -0.7338 0.5980 0.7200
v -0.7171 0.6035 0.7624
v -0.6768 0.6166 0.7800
v -0.6364 0.6297 0.7624
v -0.6197 0.6351 0.7200
v -0.6364 0.6297 0.6776
v -0.6768 0.6166 0.6600
v -0.7171 0.6035 0.6776
v -0.6870 0.5060 0.7200
v -0.6728 0.5164 0.7624
v -0.6384 0.5413 0.7800
v -0.6041 0.5662 0.7624
v -0.5899 0.5766 0.7200
v -0.6041 0.5662 0.6776
v -0.6384 0.5413 0.6600
v -0.6728 0.5164 0.6776
v -0.6140 0.4330 0.7200
v -0.6036 0.4472 0.7624
v -0.5787 0.4816 0.7800
v -0.5538 0.5159 0.7624
v -0.5434 0.5301 0.7200
v -0.5538 0.5159 0.6776
v -0.5787 0.4816 0.6600
v -0.6036 0.4472 0.6776
v -0.5220 0.3862 0.7200
v -0.5165 0.4029 0.7624
v -0.5034 0.4432 0.7800
v -0.4903 0.4836 0.7624
v -0.4849 0.5003 0.7200
v -0.4903 0.4836 0.6776
v -0.5034 0.4432 0.6600
v -0.5165 0.4029 0.6776
v -0.4200 0.3700 0.7200
v -0.4200 0.3876 0.7624
v -0.4200 0.4300 0.7800
v -0.4200 0.4724 0.7624
v -0.4200 0.4900 0.7200
v -0.4200 0.4724 0.6776
v -0.4200 0.4300 0.6600
v -0.4200 0.3876 0.6776
v -0.3180 0.3862 0.7200
v -0.3235 0.4029 0.7624
v -0.3366 0.4432 0.7800
v -0.3497 0.4836 0.7624
v -0.3551 0.5003 0.7200
v -0.3497 0.4836 0.6776
v -0.3366 0.4432 0.6600
v -0.3235 0.4029 0.6776
v -0.2260 0.4330 0.7200
v -0.2364 0.4472 0.7624
v -0.2613 0.4816 0.7800
v -0.2862 0.5159 0.7624
v -0.2966 0.5301 0.7200
v -0.2862 0.5159 0.6776
v -0.2613 0.4816 0.6600
v -0.2364 0.4472 0.6776
v -0.1530 0.5060 0.7200
v -0.1672 0.5164 0.7624
v -0.2016 0.5413 0.7800
v -0.2359 0.5662 0.7624
v -0.2501 0.5766 0.7200
v -0.2359 0.5662 0.6776
v -0.2016 0.5413 0.6600
v -0.1672 0.5164 0.6776
v -0.1062 0.5980 0.7200
v -0.1229 0.6035 0.7624
v -0.1632 0.6166 0.7800
v -0.2036 0.6297 0.7624
v -0.2203 0.6351 0.7200
v -0.2036 0.6297 0.6776
v -0.1632 0.6166 0.6600
v -0.1229 0.6035 0.6776
v 0.7500 0.7000 0.7200
v 0.7324 0.7000 0.7624
v 0.6900 0.7000 0.7800
v 0.6476 0.7000 0.7624
v 0.6300 0.7000 0.7200
v 0.6476 0.7000 0.6776
v 0.6900 0.7000 0.6600
v 0.7324 0.7000 0.6776
v 0.7338 0.8020 0.7200
v 0.7171 0.7965 0.7624
v 0.6768 0.7834 0.7800
v 0.6364 0.7703 0.7624
v 0.6197 0.7649 0.7200
v 0.6364 0.7703 0.6776
v 0.6768 0.7834 0.6600
v 0.7171 0.7965 0.6776
v 0.6870 0.8940 0.7200
v 0.6728 0.8836 0.7624
v 0.6384 0.8587 0.7800
v 0.6041 0.8338 0.7624
v 0.5899 0.8234 0.7200
v 0.6041 0.8338 0.6776
v 0.6384 0.8587 0.6600
v 0.6728 0.8836 0.6776
v 0.6140 0.9670 0.7200
v 0.6036 0.9528 0.7624
v 0.5787 0.9184 0.7800
v 0.5538 0.8841 0.7624
v 0.5434 0.8699 0.7200
v 0.5538 0.8841 0.6776
v 0.5787 0.9184 0.6600
v 0.6036 0.9528 0.6776
v 0.5220 1.0138 0.7200
v 0.5165 0.9971 0.7624
v 0.5034 0.9568 0.7800
v 0.4903 0.9164 0.7624
v 0.4849 0.8997 0.7200
v 0.4903 0.9164 0.6776
v 0.5034 0.9568 0.6600
v 0.5165 0.9971 0.6776
v 0.4200 1.0300 0.7200
v 0.4200 1.0124 0.7624
v 0.4200 0.9700 0.7800
v 0.4200 0.9276 0.7624
v 0.4200 0.9100 0.7200
v 0.4200 0.9276 0.6776
v 0.4200 0.9700 0.6600
v 0.4200 1.0124 0.6776
v 0.3180 1.0138 0.7200
v 0.3235 0.9971 0.7624
v 0.3366 0.9568 0.7800
v 0.3497 0.9164 0.7624
v 0.3551 0.8997 0.7200
v 0.3497 0.9164 0.6776
v 0.3366 0.9568 0.6600
v 0.3235 0.9971 0.6776
v 0.2260 0.9670 0.7200
v 0.2364 0.9528 0.7624
v 0.2613 0.9184 0.7800
v 0.2862 0.8841 0.7624
v 0.2966 0.8699 0.7200
v 0.2862 0.8841 0.6776
v 0.2613 0.9184 0.6600
v 0.2364 0.9528 0.6776
v 0.1530 0.8940 0.7200
v 0.1672 0.8836 0.7624
v 0.2016 0.8587 0.7800
v 0.2359 0.8338 0.7624
v 0.2501 0.8234 0.7200
v 0.2359 0.8338 0.6776
v 0.2016 0.8587 0.6600
v 0.1672 0.8836 0.6776
v 0.1062 0.8020 0.7200
v 0.1229 0.7965 0.7624
v 0.1632 0.7834 0.7800
v 0.2036 0.7703 0.7624
v 0.2203 0.7649 0.7200
v 0.2036 0.7703 0.6776
v 0.1632 0.7834 0.6600
v 0.1229 0.7965 0.6776
v 0.0900 0.7000 0.7200
v 0.1076 0.7000 0.7624
v 0.1500 0.7000 0.7800
v 0.1924 0.7000 0.7624
v 0.2100 0.7000 0.7200
v 0.1924 0.7000 0.6776
v 0.1500 0.7000 0.6600
v 0.1076 0.7000 0.6776
v 0.1062 0.5980 0.7200
v 0.1229 0.6035 0.7624
v 0.1632 0.6166 0.7800
v 0.2036 0.6297 0.7624
v 0.2203 0.6351 0.7200
v 0.2036 0.6297 0.6776
v 0.1632 0.6166 0.6600
v 0.1229 0.6035 0.6776
v 0.1530 0.5060 0.7200
v 0.1672 0.5164 0.7624
v 0.2016 0.5413 0.7800
v 0.2359 0.5662 0.7624
v 0.2501 0.5766 0.7200
v 0.2359 0.5662 0.6776
v 0.2016 0.5413 0.6600
v 0.1672 0.5164 0.6776
v 0.2260 0.4330 0.7200
v 0.2364 0.4472 0.7624
v 0.2613 0.4816 0.7800
v 0.2862 0.5159 0.7624
v 0.2966 0.5301 0.7200
v 0.2862 0.5159 0.6776
v 0.2613 0.4816 0.6600
v 0.2364 0.4472 0.6776
v 0.3180 0.3862 0.7200
v 0.3235 0.4029 0.7624
v 0.3366 0.4432 0.7800
v 0.3497 0.4836 0.7624
v 0.3551 0.5003 0.7200
v 0.3497 0.4836 0.6776
v 0.3366 0.4432 0.6600
v 0.3235 0.4029 0.6776
v 0.4200 0.3700 0.7200
v 0.4200 0.3876 0.7624
v 0.4200 0.4300 0.7800
v 0.4200 0.4724 0.7624
v 0.4200 0.4900 0.7200
v 0.4200 0.4724 0.6776
v 0.4200 0.4300 0.6600
v 0.4200 0.3876 0.6776
v 0.5220 0.3862 0.7200
v 0.5165 0.4029 0.7624
v 0.5034 0.4432 0.7800
v 0.4903 0.4836 0.7624
v 0.4849 0.5003 0.7200
v 0.4903 0.4836 0.6776
v 0.5034 0.4432 0.6600
v 0.5165 0.4029 0.6776
v 0.6140 0.4330 0.7200
v 0.6036 0.4472 0.7624
v 0.5787 0.4816 0.7800
v 0.5538 0.5159 0.7624
v 0.5434 0.5301 0.7200
v 0.5538 0.5159 0.6776
v 0.5787 0.4816 0.6600
v 0.6036 0.4472 0.6776
v 0.6870 0.5060 0.7200
v 0.6728 0.5164 0.7624
v 0.6384 0.5413 0.7800
v 0.6041 0.5662 0.7624
v 0.5899 0.5766 0.7200
v 0.6041 0.5662 0.6776
v 0.6384 0.5413 0.6600
v 0.6728 0.5164 0.6776
v 0.7338 0.5980 0.7200
v 0.7171 0.6035 0.7624
v 0.6768 0.6166 0.7800
v 0.6364 0.6297 0.7624
v 0.6197 0.6351 0.7200
v 0.6364 0.6297 0.6776
v 0.6768 0.6166 0.6600
v 0.7171 0.6035 0.6776
g painted_metal
usemtl painted_metal
f 1 3 4 2
f 3 5 6 4
f 5 7 8 6
f 7 9 10 8
f 9 11 12 10
f 11 13 14 12
f 13 15 16 14
f 15 17 18 16
f 17 19 20 18
f 19 21 22 20
f 21 23 24 22
f 23 25 26 24
f 25 27 28 26
f 27 29 30 28
f 29 31 32 30
f 31 1 2 32
f 31 29 27 25 23 21 19 17 15 13 11 9 7 5 3 1
f 2 4 6 8 10 12 14 16 18 20 22 24 26 28 30 32
f 33 35 36 34
f 35 37 38 36
f 37 39 40 38
f 39 41 42 40
f 41 43 44 42
f 43 45 46 44
f 45 47 48 46
f 47 49 50 48
f 49 51 52 50
f 51 53 54 52
f 53 55 56 54
f 55 57 58 56
f 57 59 60 58
f 59 61 62 60
f 61 63 64 62
f 63 33 34 64
f 63 61 59 57 55 53 51 49 47 45 43 41 39 37 35 33
f 34 36 38 40 42 44 46 48 50 52 54 56 58 60 62 64
g glass
usemtl glass
f 65 73 74 66
f 66 74 75 67
f 67 75 76 68
f 68 76 77 69
f 69 77 78 70
f 70 78 79 71
f 71 79 80 72
f 72 80 73 65
f 73 81 82 74
f 74 82 83 75
f 75 83 84 76
f 76 84 85 77
f 77 85 86 78
f 78 86 87 79
f 79 87 88 80
f 80 88 81 73
f 81 89 90 82
f 82 90 91 83
f 83 91 92 84
f 84 92 93 85
f 85 93 94 86
f 86 94 95 87
f 87 95 96 88
f 88 96 89 81
f 89 97 98 90
f 90 98 99 91
f 91 99 100 92
f 92 100 101 93
f 93 101 102 94
f 94 102 103 95
f 95 103 104 96
f 96 104 97 89
f 97 105 106 98
f 98 106 107 99
f 99 107 108 100
f 100 108 109 101
f 101 109 110 102
f 102 110 111 103
f 103 111 112 104
f 104 112 105 97
f 105 113 114 106
f 106 114 115 107
f 107 115 116 108
f 108 116 117 109
f 109 117 118 110
f 110 118 119 111
f 111 119 120 112
f 112 120 113 105
f 113 121 122 114
f 114 122 123 115
f 115 123 124 116
f 116 124 125 117
f 117 125 126 118
f 118 126 127 119
f 119 127 128 120
f 120 128 121 113
f 121 129 130 122
f 122 130 131 123
f 123 131 132 124
f 124 132 133 125
f 125 133 134 126
f 126 134 135 127
f 127 135 136 128
f 128 136 129 121
f 129 137 138 130
f 130 138 139 131
f 131 139 140 132
f 132 140 141 133
f 133 141 142 134
f 134 142 143 135
f 135 143 144 136
f 136 144 137 129
f 137 145 146 138
f 138 146 147 139
f 139 147 148 140
f 140 148 149 141
f 141 149 150 142
f 142 150 151 143
f 143 151 152 144
f 144 152 145 137
f 145 153 154 146
f 146 154 155 147
f 147 155 156 148
f 148 156 157 149
f 149 157 158 150
f 150 158 159 151
f 151 159 160 152
f 152 160 153 145
f 153 161 162 154
f 154 162 163 155
f 155 163 164 156
f 156 164 165 157
f 157 165 166 158
f 158 166 167 159
f 159 167 168 160
f 160 168 161 153
f 161 169 170 162
f 162 170 171 163
f 163 171 172 164
f 164 172 173 165
f 165 173 174 166
f 166 174 175 167
f 167 175 176 168
f 168 176 169 161
f 169 177 178 170
f 170 178 179 171
f 171 179 180 172
f 172 180 181 173
f 173 181 182 174
f 174 182 183 175
f 175 183 184 176
f 176 184 177 169
f 177 185 186 178
f 178 186 187 179
f 179 187 188 180
f 180 188 189 181
f 181 189 190 182
f 182 190 191 183
f 183 191 192 184
f 184 192 185 177
f 185 193 194 186
f 186 194 195 187
f 187 195 196 188
f 188 196 197 189
f 189 197 198 190
f 190 198 199 191
f 191 199 200 192
f 192 200 193 185
f 193 201 202 194
f 194 202 203 195
f 195 203 204 196
f 196 204 205 197
f 197 205 206 198
f 198 206 207 199
f 199 207 208 200
f 200 208 201 193
f 201 209 210 202
f 202 210 211 203
f 203 211 212 204
f 204 212 213 205
f 205 213 214 206
f 206 214 215 207
f 207 215 216 208
f 208 216 209 201
f 209 217 218 210
f 210 218 219 211
f 211 219 220 212
f 212 220 221 213
f 213 221 222 214
f 214 222 223 215
f 215 223 224 216
f 216 224 217 209
f 217 65 66 218
f 218 66 67 219
f 219 67 68 220
f 220 68 69 221
f 221 69 70 222
f 222 70 71 223
f 223 71 72 224
f 224 72 65 217
f 225 233 234 226
f 226 234 235 227
f 227 235 236 228
f 228 236 237 229
f 229 237 238 230
f 230 238 239 231
f 231 239 240 232
f 232 240 233 225
f 233 241 242 234
f 234 242 243 235
f 235 243 244 236
f 236 244 245 237
f 237 245 246 238
f 238 246 247 239
f 239 247 248 240
f 240 248 241 233
f 241 249 250 242
f 242 250 251 243
f 243 251 252 244
f 244 252 253 245
f 245 253 254 246
f 246 254 255 247
f 247 255 256 248
f 248 256 249 241
f 249 257 258 250
f 250 258 259 251
f 251 259 260 252
f 252 260 261 253
f 253 261 262 254
f 254 262 263 255
f 255 263 264 256
f 256 264 257 249
f 257 265 266 258
f 258 266 267 259
f 259 267 268 260
f 260 268 269 261
f 261 269 270 262
f 262 270 271 263
f 263 271 272 264
f 264 272 265 257
f 265 273 274 266
f 266 274 275 267
f 267 275 276 268
f 268 276 277 269
f 269 277 278 270
f 270 278 279 271
f 271 279 280 272
f 272 280 273 265
f 273 281 282 274
f 274 282 283 275
f 275 283 284 276
f 276 284 285 277
f 277 285 286 278
f 278 286 287 279
f 279 287 288 280
f 280 288 281 273
f 281 289 290 282
f 282 290 291 283
f 283 291 292 284
f 284 292 293 285
f 285 293 294 286
f 286 294 295 287
f 287 295 296 288
f 288 296 289 281
f 289 297 298 290
f 290 298 299 291
f 291 299 300 292
f 292 300 301 293
f 293 301 302 294
f 294 302 303 295
f 295 303 304 296
f 296 304 297 289
f 297 305 306 298
f 298 306 307 299
f 299 307 308 300
f 300 308 309 301
f 301 309 310 302
f 302 310 311 303
f 303 311 312 304
f 304 312 305 297
f 305 313 314 306
f 306 314 315 307
f 307 315 316 308
f 308 316 317 309
f 309 317 318 310
f 310 318 319 311
f 311 319 320 312
f 312 320 313 305
f 313 321 322 314
f 314 322 323 315
f 315 323 324 316
f 316 324 325 317
f 317 325 326 318
f 318 326 327 319
f 319 327 328 320
f 320 328 321 313
f 321 329 330 322
f 322 330 331 323
f 323 331 332 324
f 324 332 333 325
f 325 333 334 326
f 326 334 335 327
f 327 335 336 328
f 328 336 329 321
f 329 337 338 330
f 330 338 339 331
f 331 339 340 332
f 332 340 341 333
f 333 341 342 334
f 334 342 343 335
f 335 343 344 336
f 336 344 337 329
f 337 345 346 338
f 338 346 347 339
f 339 347 348 340
f 340 348 349 341
f 341 349 350 342
f 342 350 351 343
f 343 351 352 344
f 344 352 345 337
f 345 353 354 346
f 346 354 355 347
f 347 355 356 348
f 348 356 357 349
f 349 357 358 350
f 350 358 359 351
f 351 359 360 352
f 352 360 353 345
f 353 361 362 354
f 354 362 363 355
f 355 363 364 356
f 356 364 365 357
f 357 365 366 358
f 358 366 367 359
f 359 367 368 360
f 360 368 361 353
f 361 369 370 362
f 362 370 371 363
f 363 371 372 364
f 364 372 373 365
f 365 373 374 366
f 366 374 375 367
f 367 375 376 368
f 368 376 369 361
f 369 377 378 370
f 370 378 379 371
f 371 379 380 372
f 372 380 381 373
f 373 381 382 374
f 374 382 383 375
f 375 383 384 376
f 376 384 377 369
f 377 225 226 378
f 378 226 227 379
f 379 227 228 380
f 380 228 229 381
f 381 229 230 382
f 382 230 231 383
f 383 231 232 384
f 384 232 225 377
