# Procedural original R2 mesh: VintageRadio
mtllib materials.mtl
v -1.3500 0.3000 -0.4250
v 1.3500 0.3000 -0.4250
v 1.3500 2.2000 -0.4250
v -1.3500 2.2000 -0.4250
v -1.3500 0.3000 0.4250
v 1.3500 0.3000 0.4250
v 1.3500 2.2000 0.4250
v -1.3500 2.2000 0.4250
v -1.1000 0.5750 0.4200
v 1.1000 0.5750 0.4200
v 1.1000 1.5250 0.4200
v -1.1000 1.5250 0.4200
v -1.1000 0.5750 0.5000
v 1.1000 0.5750 0.5000
v 1.1000 1.5250 0.5000
v -1.1000 1.5250 0.5000
v -0.7500 1.4900 0.4300
v 0.7500 1.4900 0.4300
v 0.7500 1.8100 0.4300
v -0.7500 1.8100 0.4300
v -0.7500 1.4900 0.5100
v 0.7500 1.4900 0.5100
v 0.7500 1.8100 0.5100
v -0.7500 1.8100 0.5100
v -0.5900 0.7200 0.4100
v -0.5900 0.7200 0.5900
v -0.6022 0.7812 0.4100
v -0.6022 0.7812 0.5900
v -0.6369 0.8331 0.4100
v -0.6369 0.8331 0.5900
v -0.6888 0.8678 0.4100
v -0.6888 0.8678 0.5900
v -0.7500 0.8800 0.4100
v -0.7500 0.8800 0.5900
v -0.8112 0.8678 0.4100
v -0.8112 0.8678 0.5900
v -0.8631 0.8331 0.4100
v -0.8631 0.8331 0.5900
v -0.8978 0.7812 0.4100
v -0.8978 0.7812 0.5900
v -0.9100 0.7200 0.4100
v -0.9100 0.7200 0.5900
v -0.8978 0.6588 0.4100
v -0.8978 0.6588 0.5900
v -0.8631 0.6069 0.4100
v -0.8631 0.6069 0.5900
v -0.8112 0.5722 0.4100
v -0.8112 0.5722 0.5900
v -0.7500 0.5600 0.4100
v -0.7500 0.5600 0.5900
v -0.6888 0.5722 0.4100
v -0.6888 0.5722 0.5900
v -0.6369 0.6069 0.4100
v -0.6369 0.6069 0.5900
v -0.6022 0.6588 0.4100
v -0.6022 0.6588 0.5900
v 0.9100 0.7200 0.4100
v 0.9100 0.7200 0.5900
v 0.8978 0.7812 0.4100
v 0.8978 0.7812 0.5900
v 0.8631 0.8331 0.4100
v 0.8631 0.8331 0.5900
v 0.8112 0.8678 0.4100
v 0.8112 0.8678 0.5900
v 0.7500 0.8800 0.4100
v 0.7500 0.8800 0.5900
v 0.6888 0.8678 0.4100
v 0.6888 0.8678 0.5900
v 0.6369 0.8331 0.4100
v 0.6369 0.8331 0.5900
v 0.6022 0.7812 0.4100
v 0.6022 0.7812 0.5900
v 0.5900 0.7200 0.4100
v 0.5900 0.7200 0.5900
v 0.6022 0.6588 0.4100
v 0.6022 0.6588 0.5900
v 0.6369 0.6069 0.4100
v 0.6369 0.6069 0.5900
v 0.6888 0.5722 0.4100
v 0.6888 0.5722 0.5900
v 0.7500 0.5600 0.4100
v 0.7500 0.5600 0.5900
v 0.8112 0.5722 0.4100
v 0.8112 0.5722 0.5900
v 0.8631 0.6069 0.4100
v 0.8631 0.6069 0.5900
v 0.8978 0.6588 0.4100
v 0.8978 0.6588 0.5900
v -1.1750 2.0600 -0.3250
v 1.1750 2.0600 -0.3250
v 1.1750 2.1800 -0.3250
v -1.1750 2.1800 -0.3250
v -1.1750 2.0600 0.3250
v 1.1750 2.0600 0.3250
v 1.1750 2.1800 0.3250
v -1.1750 2.1800 0.3250
g dark_wood
usemtl dark_wood
f 1 2 3 4
f 5 8 7 6
f 1 5 6 2
f 2 6 7 3
f 3 7 8 4
f 5 1 4 8
g rubber
usemtl rubber
f 9 10 11 12
f 13 16 15 14
f 9 13 14 10
f 10 14 15 11
f 11 15 16 12
f 13 9 12 16
g glass
usemtl glass
f 17 18 19 20
f 21 24 23 22
f 17 21 22 18
f 18 22 23 19
f 19 23 24 20
f 21 17 20 24
g brass
usemtl brass
f 25 27 28 26
f 27 29 30 28
f 29 31 32 30
f 31 33 34 32
f 33 35 36 34
f 35 37 38 36
f 37 39 40 38
f 39 41 42 40
f 41 43 44 42
f 43 45 46 44
f 45 47 48 46
f 47 49 50 48
f 49 51 52 50
f 51 53 54 52
f 53 55 56 54
f 55 25 26 56
f 55 53 51 49 47 45 43 41 39 37 35 33 31 29 27 25
f 26 28 30 32 34 36 38 40 42 44 46 48 50 52 54 56
f 57 59 60 58
f 59 61 62 60
f 61 63 64 62
f 63 65 66 64
f 65 67 68 66
f 67 69 70 68
f 69 71 72 70
f 71 73 74 72
f 73 75 76 74
f 75 77 78 76
f 77 79 80 78
f 79 81 82 80
f 81 83 84 82
f 83 85 86 84
f 85 87 88 86
f 87 57 58 88
f 87 85 83 81 79 77 75 73 71 69 67 65 63 61 59 57
f 58 60 62 64 66 68 70 72 74 76 78 80 82 84 86 88
g dark_wood
usemtl dark_wood
f 89 90 91 92
f 93 96 95 94
f 89 93 94 90
f 90 94 95 91
f 91 95 96 92
f 93 89 92 96
