# Procedural original R2 mesh: record_player
mtllib materials.mtl
v -1.2000 0.3250 -1.0500
v 1.2000 0.3250 -1.0500
v 1.2000 0.6750 -1.0500
v -1.2000 0.6750 -1.0500
v -1.2000 0.3250 1.0500
v 1.2000 0.3250 1.0500
v 1.2000 0.6750 1.0500
v -1.2000 0.6750 1.0500
v 0.7500 0.6900 0.0000
v 0.7500 0.8100 0.0000
v 0.6929 0.6900 0.2870
v 0.6929 0.8100 0.2870
v 0.5303 0.6900 0.5303
v 0.5303 0.8100 0.5303
v 0.2870 0.6900 0.6929
v 0.2870 0.8100 0.6929
v 0.0000 0.6900 0.7500
v 0.0000 0.8100 0.7500
v -0.2870 0.6900 0.6929
v -0.2870 0.8100 0.6929
v -0.5303 0.6900 0.5303
v -0.5303 0.8100 0.5303
v -0.6929 0.6900 0.2870
v -0.6929 0.8100 0.2870
v -0.7500 0.6900 0.0000
v -0.7500 0.8100 0.0000
v -0.6929 0.6900 -0.2870
v -0.6929 0.8100 -0.2870
v -0.5303 0.6900 -0.5303
v -0.5303 0.8100 -0.5303
v -0.2870 0.6900 -0.6929
v -0.2870 0.8100 -0.6929
v -0.0000 0.6900 -0.7500
v -0.0000 0.8100 -0.7500
v 0.2870 0.6900 -0.6929
v 0.2870 0.8100 -0.6929
v 0.5303 0.6900 -0.5303
v 0.5303 0.8100 -0.5303
v 0.6929 0.6900 -0.2870
v 0.6929 0.8100 -0.2870
v 0.0800 0.7300 0.0000
v 0.0800 0.9300 0.0000
v 0.0739 0.7300 0.0306
v 0.0739 0.9300 0.0306
v 0.0566 0.7300 0.0566
v 0.0566 0.9300 0.0566
v 0.0306 0.7300 0.0739
v 0.0306 0.9300 0.0739
v 0.0000 0.7300 0.0800
v 0.0000 0.9300 0.0800
v -0.0306 0.7300 0.0739
v -0.0306 0.9300 0.0739
v -0.0566 0.7300 0.0566
v -0.0566 0.9300 0.0566
v -0.0739 0.7300 0.0306
v -0.0739 0.9300 0.0306
v -0.0800 0.7300 0.0000
v -0.0800 0.9300 0.0000
v -0.0739 0.7300 -0.0306
v -0.0739 0.9300 -0.0306
v -0.0566 0.7300 -0.0566
v -0.0566 0.9300 -0.0566
v -0.0306 0.7300 -0.0739
v -0.0306 0.9300 -0.0739
v -0.0000 0.7300 -0.0800
v -0.0000 0.9300 -0.0800
v 0.0306 0.7300 -0.0739
v 0.0306 0.9300 -0.0739
v 0.0566 0.7300 -0.0566
v 0.0566 0.9300 -0.0566
v 0.0739 0.7300 -0.0306
v 0.0739 0.9300 -0.0306
v 0.7400 0.6000 -0.0600
v 0.8600 0.6000 -0.0600
v 0.8600 1.8000 -0.0600
v 0.7400 1.8000 -0.0600
v 0.7400 0.6000 0.0600
v 0.8600 0.6000 0.0600
v 0.8600 1.8000 0.0600
v 0.7400 1.8000 0.0600
g dark_wood
usemtl dark_wood
f 1 2 3 4
f 5 8 7 6
f 1 5 6 2
f 2 6 7 3
f 3 7 8 4
f 5 1 4 8
g rubber
usemtl rubber
f 9 11 12 10
f 11 13 14 12
f 13 15 16 14
f 15 17 18 16
f 17 19 20 18
f 19 21 22 20
f 21 23 24 22
f 23 25 26 24
f 25 27 28 26
f 27 29 30 28
f 29 31 32 30
f 31 33 34 32
f 33 35 36 34
f 35 37 38 36
f 37 39 40 38
f 39 9 10 40
f 39 37 35 33 31 29 27 25 23 21 19 17 15 13 11 9
f 10 12 14 16 18 20 22 24 26 28 30 32 34 36 38 40
g brass
usemtl brass
f 41 43 44 42
f 43 45 46 44
f 45 47 48 46
f 47 49 50 48
f 49 51 52 50
f 51 53 54 52
f 53 55 56 54
f 55 57 58 56
f 57 59 60 58
f 59 61 62 60
f 61 63 64 62
f 63 65 66 64
f 65 67 68 66
f 67 69 70 68
f 69 71 72 70
f 71 41 42 72
f 71 69 67 65 63 61 59 57 55 53 51 49 47 45 43 41
f 42 44 46 48 50 52 54 56 58 60 62 64 66 68 70 72
f 73 74 75 76
f 77 80 79 78
f 73 77 78 74
f 74 78 79 75
f 75 79 80 76
f 77 73 76 80
