# Procedural original R2 mesh: TableTelephone
mtllib materials.mtl
v -1.0500 0.3750 -0.6000
v 1.0500 0.3750 -0.6000
v 1.0500 0.9250 -0.6000
v -1.0500 0.9250 -0.6000
v -1.0500 0.3750 0.6000
v 1.0500 0.3750 0.6000
v 1.0500 0.9250 0.6000
v -1.0500 0.9250 0.6000
v -1.2500 1.3500 0.0000
v 0.1500 1.3500 0.0000
v -1.2500 1.3310 0.0957
v 0.1500 1.3310 0.0957
v -1.2500 1.2768 0.1768
v 0.1500 1.2768 0.1768
v -1.2500 1.1957 0.2310
v 0.1500 1.1957 0.2310
v -1.2500 1.1000 0.2500
v 0.1500 1.1000 0.2500
v -1.2500 1.0043 0.2310
v 0.1500 1.0043 0.2310
v -1.2500 0.9232 0.1768
v 0.1500 0.9232 0.1768
v -1.2500 0.8690 0.0957
v 0.1500 0.8690 0.0957
v -1.2500 0.8500 0.0000
v 0.1500 0.8500 0.0000
v -1.2500 0.8690 -0.0957
v 0.1500 0.8690 -0.0957
v -1.2500 0.9232 -0.1768
v 0.1500 0.9232 -0.1768
v -1.2500 1.0043 -0.2310
v 0.1500 1.0043 -0.2310
v -1.2500 1.1000 -0.2500
v 0.1500 1.1000 -0.2500
v -1.2500 1.1957 -0.2310
v 0.1500 1.1957 -0.2310
v -1.2500 1.2768 -0.1768
v 0.1500 1.2768 -0.1768
v -1.2500 1.3310 -0.0957
v 0.1500 1.3310 -0.0957
v -0.1500 1.3500 0.0000
v 1.2500 1.3500 0.0000
v -0.1500 1.3310 0.0957
v 1.2500 1.3310 0.0957
v -0.1500 1.2768 0.1768
v 1.2500 1.2768 0.1768
v -0.1500 1.1957 0.2310
v 1.2500 1.1957 0.2310
v -0.1500 1.1000 0.2500
v 1.2500 1.1000 0.2500
v -0.1500 1.0043 0.2310
v 1.2500 1.0043 0.2310
v -0.1500 0.9232 0.1768
v 1.2500 0.9232 0.1768
v -0.1500 0.8690 0.0957
v 1.2500 0.8690 0.0957
v -0.1500 0.8500 0.0000
v 1.2500 0.8500 0.0000
v -0.1500 0.8690 -0.0957
v 1.2500 0.8690 -0.0957
v -0.1500 0.9232 -0.1768
v 1.2500 0.9232 -0.1768
v -0.1500 1.0043 -0.2310
v 1.2500 1.0043 -0.2310
v -0.1500 1.1000 -0.2500
v 1.2500 1.1000 -0.2500
v -0.1500 1.1957 -0.2310
v 1.2500 1.1957 -0.2310
v -0.1500 1.2768 -0.1768
v 1.2500 1.2768 -0.1768
v -0.1500 1.3310 -0.0957
v 1.2500 1.3310 -0.0957
v 0.1200 0.8000 0.6500
v 0.1200 1.0000 0.6500
v 0.1109 0.8000 0.6959
v 0.1109 1.0000 0.6959
v 0.0849 0.8000 0.7349
v 0.0849 1.0000 0.7349
v 0.0459 0.8000 0.7609
v 0.0459 1.0000 0.7609
v 0.0000 0.8000 0.7700
v 0.0000 1.0000 0.7700
v -0.0459 0.8000 0.7609
v -0.0459 1.0000 0.7609
v -0.0849 0.8000 0.7349
v -0.0849 1.0000 0.7349
v -0.1109 0.8000 0.6959
v -0.1109 1.0000 0.6959
v -0.1200 0.8000 0.6500
v -0.1200 1.0000 0.6500
v -0.1109 0.8000 0.6041
v -0.1109 1.0000 0.6041
v -0.0849 0.8000 0.5651
v -0.0849 1.0000 0.5651
v -0.0459 0.8000 0.5391
v -0.0459 1.0000 0.5391
v -0.0000 0.8000 0.5300
v -0.0000 1.0000 0.5300
v 0.0459 0.8000 0.5391
v 0.0459 1.0000 0.5391
v 0.0849 0.8000 0.5651
v 0.0849 1.0000 0.5651
v 0.1109 0.8000 0.6041
v 0.1109 1.0000 0.6041
g dark_wood
usemtl dark_wood
f 1 2 3 4
f 5 8 7 6
f 1 5 6 2
f 2 6 7 3
f 3 7 8 4
f 5 1 4 8
g rubber
usemtl rubber
f 9 11 12 10
f 11 13 14 12
f 13 15 16 14
f 15 17 18 16
f 17 19 20 18
f 19 21 22 20
f 21 23 24 22
f 23 25 26 24
f 25 27 28 26
f 27 29 30 28
f 29 31 32 30
f 31 33 34 32
f 33 35 36 34
f 35 37 38 36
f 37 39 40 38
f 39 9 10 40
f 39 37 35 33 31 29 27 25 23 21 19 17 15 13 11 9
f 10 12 14 16 18 20 22 24 26 28 30 32 34 36 38 40
f 41 43 44 42
f 43 45 46 44
f 45 47 48 46
f 47 49 50 48
f 49 51 52 50
f 51 53 54 52
f 53 55 56 54
f 55 57 58 56
f 57 59 60 58
f 59 61 62 60
f 61 63 64 62
f 63 65 66 64
f 65 67 68 66
f 67 69 70 68
f 69 71 72 70
f 71 41 42 72
f 71 69 67 65 63 61 59 57 55 53 51 49 47 45 43 41
f 42 44 46 48 50 52 54 56 58 60 62 64 66 68 70 72
g brass
usemtl brass
f 73 75 76 74
f 75 77 78 76
f 77 79 80 78
f 79 81 82 80
f 81 83 84 82
f 83 85 86 84
f 85 87 88 86
f 87 89 90 88
f 89 91 92 90
f 91 93 94 92
f 93 95 96 94
f 95 97 98 96
f 97 99 100 98
f 99 101 102 100
f 101 103 104 102
f 103 73 74 104
f 103 101 99 97 95 93 91 89 87 85 83 81 79 77 75 73
f 74 76 78 80 82 84 86 88 90 92 94 96 98 100 102 104
