# Procedural original R2 mesh: Typewriter
mtllib materials.mtl
v -1.3500 0.3100 -0.7500
v 1.3500 0.3100 -0.7500
v 1.3500 0.7900 -0.7500
v -1.3500 0.7900 -0.7500
v -1.3500 0.3100 0.7500
v 1.3500 0.3100 0.7500
v 1.3500 0.7900 0.7500
v -1.3500 0.7900 0.7500
v -1.0500 1.0500 -0.5250
v 1.0500 1.0500 -0.5250
v 1.0500 1.1900 -0.5250
v -1.0500 1.1900 -0.5250
v -1.0500 1.0500 0.3250
v 1.0500 1.0500 0.3250
v 1.0500 1.1900 0.3250
v -1.0500 1.1900 0.3250
v -1.1500 1.8300 -0.5000
v 1.1500 1.8300 -0.5000
v -1.1500 1.7935 -0.3163
v 1.1500 1.7935 -0.3163
v -1.1500 1.6894 -0.1606
v 1.1500 1.6894 -0.1606
v -1.1500 1.5337 -0.0565
v 1.1500 1.5337 -0.0565
v -1.1500 1.3500 -0.0200
v 1.1500 1.3500 -0.0200
v -1.1500 1.1663 -0.0565
v 1.1500 1.1663 -0.0565
v -1.1500 1.0106 -0.1606
v 1.1500 1.0106 -0.1606
v -1.1500 0.9065 -0.3163
v 1.1500 0.9065 -0.3163
v -1.1500 0.8700 -0.5000
v 1.1500 0.8700 -0.5000
v -1.1500 0.9065 -0.6837
v 1.1500 0.9065 -0.6837
v -1.1500 1.0106 -0.8394
v 1.1500 1.0106 -0.8394
v -1.1500 1.1663 -0.9435
v 1.1500 1.1663 -0.9435
v -1.1500 1.3500 -0.9800
v 1.1500 1.3500 -0.9800
v -1.1500 1.5337 -0.9435
v 1.1500 1.5337 -0.9435
v -1.1500 1.6894 -0.8394
v 1.1500 1.6894 -0.8394
v -1.1500 1.7935 -0.6837
v 1.1500 1.7935 -0.6837
v -0.5800 0.7600 0.5000
v -0.5800 0.9400 0.5000
v -0.5853 0.7600 0.5268
v -0.5853 0.9400 0.5268
v -0.6005 0.7600 0.5495
v -0.6005 0.9400 0.5495
v -0.6232 0.7600 0.5647
v -0.6232 0.9400 0.5647
v -0.6500 0.7600 0.5700
v -0.6500 0.9400 0.5700
v -0.6768 0.7600 0.5647
v -0.6768 0.9400 0.5647
v -0.6995 0.7600 0.5495
v -0.6995 0.9400 0.5495
v -0.7147 0.7600 0.5268
v -0.7147 0.9400 0.5268
v -0.7200 0.7600 0.5000
v -0.7200 0.9400 0.5000
v -0.7147 0.7600 0.4732
v -0.7147 0.9400 0.4732
v -0.6995 0.7600 0.4505
v -0.6995 0.9400 0.4505
v -0.6768 0.7600 0.4353
v -0.6768 0.9400 0.4353
v -0.6500 0.7600 0.4300
v -0.6500 0.9400 0.4300
v -0.6232 0.7600 0.4353
v -0.6232 0.9400 0.4353
v -0.6005 0.7600 0.4505
v -0.6005 0.9400 0.4505
v -0.5853 0.7600 0.4732
v -0.5853 0.9400 0.4732
v -0.2800 0.7600 0.5000
v -0.2800 0.9400 0.5000
v -0.2853 0.7600 0.5268
v -0.2853 0.9400 0.5268
v -0.3005 0.7600 0.5495
v -0.3005 0.9400 0.5495
v -0.3232 0.7600 0.5647
v -0.3232 0.9400 0.5647
v -0.3500 0.7600 0.5700
v -0.3500 0.9400 0.5700
v -0.3768 0.7600 0.5647
v -0.3768 0.9400 0.5647
v -0.3995 0.7600 0.5495
v -0.3995 0.9400 0.5495
v -0.4147 0.7600 0.5268
v -0.4147 0.9400 0.5268
v -0.4200 0.7600 0.5000
v -0.4200 0.9400 0.5000
v -0.4147 0.7600 0.4732
v -0.4147 0.9400 0.4732
v -0.3995 0.7600 0.4505
v -0.3995 0.9400 0.4505
v -0.3768 0.7600 0.4353
v -0.3768 0.9400 0.4353
v -0.3500 0.7600 0.4300
v -0.3500 0.9400 0.4300
v -0.3232 0.7600 0.4353
v -0.3232 0.9400 0.4353
v -0.3005 0.7600 0.4505
v -0.3005 0.9400 0.4505
v -0.2853 0.7600 0.4732
v -0.2853 0.9400 0.4732
v 0.0200 0.7600 0.5000
v 0.0200 0.9400 0.5000
v 0.0147 0.7600 0.5268
v 0.0147 0.9400 0.5268
v -0.0005 0.7600 0.5495
v -0.0005 0.9400 0.5495
v -0.0232 0.7600 0.5647
v -0.0232 0.9400 0.5647
v -0.0500 0.7600 0.5700
v -0.0500 0.9400 0.5700
v -0.0768 0.7600 0.5647
v -0.0768 0.9400 0.5647
v -0.0995 0.7600 0.5495
v -0.0995 0.9400 0.5495
v -0.1147 0.7600 0.5268
v -0.1147 0.9400 0.5268
v -0.1200 0.7600 0.5000
v -0.1200 0.9400 0.5000
v -0.1147 0.7600 0.4732
v -0.1147 0.9400 0.4732
v -0.0995 0.7600 0.4505
v -0.0995 0.9400 0.4505
v -0.0768 0.7600 0.4353
v -0.0768 0.9400 0.4353
v -0.0500 0.7600 0.4300
v -0.0500 0.9400 0.4300
v -0.0232 0.7600 0.4353
v -0.0232 0.9400 0.4353
v -0.0005 0.7600 0.4505
v -0.0005 0.9400 0.4505
v 0.0147 0.7600 0.4732
v 0.0147 0.9400 0.4732
v 0.3200 0.7600 0.5000
v 0.3200 0.9400 0.5000
v 0.3147 0.7600 0.5268
v 0.3147 0.9400 0.5268
v 0.2995 0.7600 0.5495
v 0.2995 0.9400 0.5495
v 0.2768 0.7600 0.5647
v 0.2768 0.9400 0.5647
v 0.2500 0.7600 0.5700
v 0.2500 0.9400 0.5700
v 0.2232 0.7600 0.5647
v 0.2232 0.9400 0.5647
v 0.2005 0.7600 0.5495
v 0.2005 0.9400 0.5495
v 0.1853 0.7600 0.5268
v 0.1853 0.9400 0.5268
v 0.1800 0.7600 0.5000
v 0.1800 0.9400 0.5000
v 0.1853 0.7600 0.4732
v 0.1853 0.9400 0.4732
v 0.2005 0.7600 0.4505
v 0.2005 0.9400 0.4505
v 0.2232 0.7600 0.4353
v 0.2232 0.9400 0.4353
v 0.2500 0.7600 0.4300
v 0.2500 0.9400 0.4300
v 0.2768 0.7600 0.4353
v 0.2768 0.9400 0.4353
v 0.2995 0.7600 0.4505
v 0.2995 0.9400 0.4505
v 0.3147 0.7600 0.4732
v 0.3147 0.9400 0.4732
v 0.6200 0.7600 0.5000
v 0.6200 0.9400 0.5000
v 0.6147 0.7600 0.5268
v 0.6147 0.9400 0.5268
v 0.5995 0.7600 0.5495
v 0.5995 0.9400 0.5495
v 0.5768 0.7600 0.5647
v 0.5768 0.9400 0.5647
v 0.5500 0.7600 0.5700
v 0.5500 0.9400 0.5700
v 0.5232 0.7600 0.5647
v 0.5232 0.9400 0.5647
v 0.5005 0.7600 0.5495
v 0.5005 0.9400 0.5495
v 0.4853 0.7600 0.5268
v 0.4853 0.9400 0.5268
v 0.4800 0.7600 0.5000
v 0.4800 0.9400 0.5000
v 0.4853 0.7600 0.4732
v 0.4853 0.9400 0.4732
v 0.5005 0.7600 0.4505
v 0.5005 0.9400 0.4505
v 0.5232 0.7600 0.4353
v 0.5232 0.9400 0.4353
v 0.5500 0.7600 0.4300
v 0.5500 0.9400 0.4300
v 0.5768 0.7600 0.4353
v 0.5768 0.9400 0.4353
v 0.5995 0.7600 0.4505
v 0.5995 0.9400 0.4505
v 0.6147 0.7600 0.4732
v 0.6147 0.9400 0.4732
g painted_metal
usemtl painted_metal
f 1 2 3 4
f 5 8 7 6
f 1 5 6 2
f 2 6 7 3
f 3 7 8 4
f 5 1 4 8
g rubber
usemtl rubber
f 9 10 11 12
f 13 16 15 14
f 9 13 14 10
f 10 14 15 11
f 11 15 16 12
f 13 9 12 16
g ivory
usemtl ivory
f 17 19 20 18
f 19 21 22 20
f 21 23 24 22
f 23 25 26 24
f 25 27 28 26
f 27 29 30 28
f 29 31 32 30
f 31 33 34 32
f 33 35 36 34
f 35 37 38 36
f 37 39 40 38
f 39 41 42 40
f 41 43 44 42
f 43 45 46 44
f 45 47 48 46
f 47 17 18 48
f 47 45 43 41 39 37 35 33 31 29 27 25 23 21 19 17
f 18 20 22 24 26 28 30 32 34 36 38 40 42 44 46 48
g brass
usemtl brass
f 49 51 52 50
f 51 53 54 52
f 53 55 56 54
f 55 57 58 56
f 57 59 60 58
f 59 61 62 60
f 61 63 64 62
f 63 65 66 64
f 65 67 68 66
f 67 69 70 68
f 69 71 72 70
f 71 73 74 72
f 73 75 76 74
f 75 77 78 76
f 77 79 80 78
f 79 49 50 80
f 79 77 75 73 71 69 67 65 63 61 59 57 55 53 51 49
f 50 52 54 56 58 60 62 64 66 68 70 72 74 76 78 80
f 81 83 84 82
f 83 85 86 84
f 85 87 88 86
f 87 89 90 88
f 89 91 92 90
f 91 93 94 92
f 93 95 96 94
f 95 97 98 96
f 97 99 100 98
f 99 101 102 100
f 101 103 104 102
f 103 105 106 104
f 105 107 108 106
f 107 109 110 108
f 109 111 112 110
f 111 81 82 112
f 111 109 107 105 103 101 99 97 95 93 91 89 87 85 83 81
f 82 84 86 88 90 92 94 96 98 100 102 104 106 108 110 112
f 113 115 116 114
f 115 117 118 116
f 117 119 120 118
f 119 121 122 120
f 121 123 124 122
f 123 125 126 124
f 125 127 128 126
f 127 129 130 128
f 129 131 132 130
f 131 133 134 132
f 133 135 136 134
f 135 137 138 136
f 137 139 140 138
f 139 141 142 140
f 141 143 144 142
f 143 113 114 144
f 143 141 139 137 135 133 131 129 127 125 123 121 119 117 115 113
f 114 116 118 120 122 124 126 128 130 132 134 136 138 140 142 144
f 145 147 148 146
f 147 149 150 148
f 149 151 152 150
f 151 153 154 152
f 153 155 156 154
f 155 157 158 156
f 157 159 160 158
f 159 161 162 160
f 161 163 164 162
f 163 165 166 164
f 165 167 168 166
f 167 169 170 168
f 169 171 172 170
f 171 173 174 172
f 173 175 176 174
f 175 145 146 176
f 175 173 171 169 167 165 163 161 159 157 155 153 151 149 147 145
f 146 148 150 152 154 156 158 160 162 164 166 168 170 172 174 176
f 177 179 180 178
f 179 181 182 180
f 181 183 184 182
f 183 185 186 184
f 185 187 188 186
f 187 189 190 188
f 189 191 192 190
f 191 193 194 192
f 193 195 196 194
f 195 197 198 196
f 197 199 200 198
f 199 201 202 200
f 201 203 204 202
f 203 205 206 204
f 205 207 208 206
f 207 177 178 208
f 207 205 203 201 199 197 195 193 191 189 187 185 183 181 179 177
f 178 180 182 184 186 188 190 192 194 196 198 200 202 204 206 208
