<svg xmlns="http://www.w3.org/2000/svg" viewBox="0 0 256 320" data-character-id="auctioneer" data-expression-anchor="128,134" data-face-zone="76 58 104 136" data-face-height-ratio="0.425" data-eye-system="sclera-iris-pupil-highlight" data-runtime-reference="220x250" data-head-height-svg="164" data-visible-face-skin-height-svg="108" data-major-face-stroke-svg="3.5" data-expression-geometry-version="2">
  <title>Auctioneer portrait</title><desc>Cute paper-cut auctioneer with swept hair, plum tailcoat, gold gavel pin and hand gavel.</desc>
  <path fill="#F5DCA8" d="M22 302V90Q22 30 82 30h92q60 0 60 60v212z"/>
  <path fill="#E8B866" d="M31 86Q45 41 82 34h92q37 7 51 52l-18-11-17 12-18-13-18 12-19-13-19 14-18-13-18 12-16-11z"/>
  <g data-layer="hair"><path fill="#542D57" d="M77 130Q63 77 97 55q32-22 74 3 21 13 18 54l-19-32q-35 14-83 8z"/><path fill="#73406E" d="M94 62q34-34 81 1-42 4-69 31l-30-5q5-17 18-27z"/></g>
  <g data-layer="face"><ellipse fill="#E7A879" cx="77" cy="132" rx="10" ry="17"/><ellipse fill="#E7A879" cx="179" cy="132" rx="10" ry="17"/><path data-part="face-shape" fill="#F2BD8F" d="M77 88Q84 58 128 58t51 30l-4 63q-10 36-47 43-37-7-49-43z"/><g data-part="brows" fill="none" stroke="#6C3B48" stroke-width="3.5" stroke-linecap="round"><path d="M91 104q15-10 29-1"/><path d="M136 103q14-9 29 1"/></g><g data-eye="left"><ellipse data-part="sclera" fill="#FFF9EE" cx="106" cy="122" rx="15" ry="10"/><circle data-part="iris" fill="#865381" cx="107" cy="123" r="8"/><circle data-part="pupil" fill="#35243A" cx="107" cy="123" r="4"/><circle data-part="highlight" fill="#FFFFFF" cx="104" cy="119" r="2.5"/></g><g data-eye="right"><ellipse data-part="sclera" fill="#FFF9EE" cx="150" cy="122" rx="15" ry="10"/><circle data-part="iris" fill="#865381" cx="149" cy="123" r="8"/><circle data-part="pupil" fill="#35243A" cx="149" cy="123" r="4"/><circle data-part="highlight" fill="#FFFFFF" cx="146" cy="119" r="2.5"/></g><ellipse fill="#E89482" cx="94" cy="148" rx="10" ry="5" opacity=".72"/><ellipse fill="#E89482" cx="162" cy="148" rx="10" ry="5" opacity=".72"/><path data-part="nose" fill="#D88C68" d="M124 132l-5 15 9 4 8-4-5-15z"/><path data-part="mouth" fill="none" stroke="#8B4353" stroke-width="3.5" stroke-linecap="round" d="M115 165q13 13 26 0"/></g>
  <g data-layer="outfit"><path fill="#4A244F" d="M57 304l7-78q5-36 47-43l17 21 17-21q42 7 47 43l7 78z"/><path fill="#FFF5DF" d="M111 183l17 21 17-21 8 38-25 27-25-27z"/><path fill="#7B3B70" d="M57 304l31-91 26 21-13 70zm142 0-31-91-26 21 13 70z"/><path fill="#E8B84A" d="M120 211h16v31h-16z"/><path fill="#F6CE67" d="M128 251l8 8-8 8-8-8z"/></g>
  <g data-layer="prop"><circle fill="#E9B949" cx="171" cy="224" r="11"/><path fill="#6B3B2D" d="M42 253l47-31 7 10-47 31z"/><rect fill="#E9B949" x="82" y="211" width="25" height="17" rx="5" transform="rotate(-33 94 220)"/><path fill="#F8DE86" d="M166 220h10v3h-10zm4-5h3v14h-3z"/></g>
  <g data-layer="expression-anchors" fill="none" stroke="none"><path data-expression="NEUTRAL" data-brow-shift-svg="0" data-eye-height-shift-svg="0" data-mouth-corner-shift-svg="0" d="M96 108h24m17 0h24m-40 50h15"/><path data-expression="POSITIVE" data-brow-shift-svg="-5" data-eye-height-shift-svg="-3" data-mouth-corner-shift-svg="-5" d="M96 104h24m17 0h24m-30 52q9 12 18 0"/><path data-expression="NEGATIVE" data-brow-shift-svg="5" data-eye-height-shift-svg="-3" data-mouth-corner-shift-svg="5" d="M96 112h24m17 0h24m-30 54q9-10 18 0"/></g>
</svg>
