<svg xmlns="http://www.w3.org/2000/svg" viewBox="0 0 256 320" data-character-id="bidder_06" data-expression-anchor="130,135" data-face-zone="75 58 108 138" data-face-height-ratio="0.431" data-eye-system="sclera-iris-pupil-highlight" data-runtime-reference="220x250" data-head-height-svg="164" data-visible-face-skin-height-svg="108" data-major-face-stroke-svg="3.5" data-expression-geometry-version="2">
  <title>Speculator portrait</title><desc>Cute speculator with sharp fringe, charcoal jacket, coin pin and flipping coin.</desc>
  <path fill="#E5E4E6" d="M18 302V91q0-60 60-60h100q60 0 60 60v211z"/>
  <path fill="#AAA8AF" d="M28 302V82l25-20 20 16 23-38 31 29 28-34 25 39 26-14 22 22v220z"/>
  <g data-layer="hair"><path fill="#292934" d="M73 130Q59 84 82 53q27-34 74-18 32 12 31 61l-12 37-18-54-26 20-20-23-25 43z"/><path fill="#444452" d="M79 65q32-45 79-29 23 8 29 41l-46-19-23 28-18-19-17 25z"/></g>
  <g data-layer="face"><ellipse fill="#CB8E6C" cx="77" cy="133" rx="10" ry="17"/><ellipse fill="#CB8E6C" cx="181" cy="133" rx="10" ry="17"/><path data-part="face-shape" fill="#DC9F78" d="M76 86Q89 58 130 58q40 0 52 29l-7 65q-11 38-45 44-35-6-47-44z"/><g data-part="brows" fill="none" stroke="#3B3942" stroke-width="3.8" stroke-linecap="round"><path d="M91 107l29-8"/><path d="M139 99l27 8"/></g><g data-eye="left"><ellipse data-part="sclera" fill="#F9FAFC" cx="107" cy="123" rx="15" ry="9"/><circle data-part="iris" fill="#777D8D" cx="109" cy="124" r="7.5"/><circle data-part="pupil" fill="#292B34" cx="109" cy="124" r="4"/><circle data-part="highlight" fill="#FFFFFF" cx="106" cy="120" r="2.4"/></g><g data-eye="right"><ellipse data-part="sclera" fill="#F9FAFC" cx="151" cy="123" rx="15" ry="9"/><circle data-part="iris" fill="#777D8D" cx="149" cy="124" r="7.5"/><circle data-part="pupil" fill="#292B34" cx="149" cy="124" r="4"/><circle data-part="highlight" fill="#FFFFFF" cx="146" cy="120" r="2.4"/></g><ellipse fill="#CC7568" cx="96" cy="149" rx="9" ry="4.5" opacity=".6"/><ellipse fill="#CC7568" cx="164" cy="149" rx="9" ry="4.5" opacity=".6"/><path data-part="nose" fill="#B96C58" d="M126 134l-5 15 9 5 8-5-5-15z"/><path data-part="mouth" fill="none" stroke="#74404D" stroke-width="3.5" stroke-linecap="round" d="M117 169q13 5 26-2"/></g>
  <g data-layer="outfit"><path fill="#303039" d="M47 304l12-78q7-34 52-42l19 23 19-23q45 8 52 42l12 78z"/><path fill="#EEE7D6" d="M111 184l19 23 19-23-8 54h-23z"/><path fill="#52515B" d="M47 304l47-100 27 34-19 66zm166 0-47-100-27 34 19 66z"/><path fill="#A6484F" d="M125 208h10l5 50-10 14-10-14z"/></g>
  <g data-layer="prop"><circle fill="#E6B84E" cx="169" cy="224" r="13"/><path fill="#FFF0A8" d="M167 216h5v16h-5z"/><ellipse fill="#E6B84E" cx="78" cy="250" rx="17" ry="6" transform="rotate(-18 78 250)"/><path fill="none" stroke="#FFF0A8" stroke-width="3" d="M70 249l16 1"/></g>
  <g data-layer="expression-anchors" fill="none" stroke="none"><path data-expression="NEUTRAL" data-brow-shift-svg="0" data-eye-height-shift-svg="0" data-mouth-corner-shift-svg="0" d="M98 106h24m16 0h24m-37 58h14"/><path data-expression="POSITIVE" data-brow-shift-svg="-5" data-eye-height-shift-svg="-3" data-mouth-corner-shift-svg="-5" d="M98 102h24m16 0h24m-26 52q9 12 18 0"/><path data-expression="NEGATIVE" data-brow-shift-svg="5" data-eye-height-shift-svg="-3" data-mouth-corner-shift-svg="5" d="M98 112h24m16 0h24m-26 54q9-10 18 0"/></g>
</svg>
