<svg xmlns="http://www.w3.org/2000/svg" viewBox="0 0 256 320" data-character-id="bidder_12" data-expression-anchor="128,137" data-face-zone="73 59 110 139" data-face-height-ratio="0.434" data-eye-system="sclera-iris-pupil-highlight" data-runtime-reference="220x250" data-head-height-svg="164" data-visible-face-skin-height-svg="108" data-major-face-stroke-svg="3.5" data-expression-geometry-version="2">
  <title>Clockmaker portrait</title><desc>Cute clockmaker with curled hair and moustache, blue work coat, gear loupe and brass gear.</desc>
  <path fill="#DDE9F2" d="M19 302V91q0-60 60-60h98q60 0 60 60v211z"/>
  <path fill="#9DBED5" d="M29 302V82l22-20 23 15 23-36 31 28 29-34 24 38 26-13 20 22v220z"/>
  <g data-layer="hair"><path fill="#5A4130" d="M72 127q-8-26 10-43-11-27 17-39 21-22 39-5 26-10 37 16 20 11 8 34 12 24-7 43l-15-47-68 1-6 46z"/><circle fill="#7A5A3B" cx="96" cy="64" r="18"/><circle fill="#7A5A3B" cx="127" cy="50" r="19"/><circle fill="#7A5A3B" cx="157" cy="63" r="19"/></g>
  <g data-layer="face"><ellipse fill="#D39872" cx="75" cy="135" rx="11" ry="18"/><ellipse fill="#D39872" cx="181" cy="135" rx="11" ry="18"/><path data-part="face-shape" fill="#E4AA7F" d="M74 90Q85 59 128 59t54 31l-5 66q-11 35-49 42-38-7-50-42z"/><g data-part="brows" fill="none" stroke="#5A4639" stroke-width="3.8" stroke-linecap="round"><path d="M89 107q16-8 31 1"/><path d="M136 108q15-9 31-1"/></g><g data-eye="left"><ellipse data-part="sclera" fill="#F5FAFF" cx="105" cy="125" rx="15.5" ry="10"/><circle data-part="iris" fill="#4F87AF" cx="106" cy="126" r="8.3"/><circle data-part="pupil" fill="#2C4050" cx="106" cy="126" r="4.3"/><circle data-part="highlight" fill="#FFFFFF" cx="103" cy="122" r="2.5"/></g><g data-eye="right"><ellipse data-part="sclera" fill="#F5FAFF" cx="151" cy="125" rx="15.5" ry="10"/><circle data-part="iris" fill="#4F87AF" cx="150" cy="126" r="8.3"/><circle data-part="pupil" fill="#2C4050" cx="150" cy="126" r="4.3"/><circle data-part="highlight" fill="#FFFFFF" cx="147" cy="122" r="2.5"/></g><ellipse fill="#D17A67" cx="94" cy="151" rx="9" ry="4.5" opacity=".62"/><ellipse fill="#D17A67" cx="162" cy="151" rx="9" ry="4.5" opacity=".62"/><path data-part="nose" fill="#BA6D59" d="M124 137l-5 14 9 5 8-5-5-14z"/><path fill="#6B4737" d="M103 162q15-15 25 1 10-16 25-1-8 20-25 6-17 14-25-6z"/><path data-part="mouth" fill="none" stroke="#7A4544" stroke-width="3.5" stroke-linecap="round" d="M118 174q10 7 20 0"/></g>
  <g data-layer="outfit"><path fill="#345D7D" d="M46 304l13-77q6-34 50-43l19 23 19-23q44 9 50 43l13 77z"/><path fill="#EFE5D0" d="M109 184l19 23 19-23-7 54h-24z"/><path fill="#4F82A6" d="M46 304l47-100 27 34-18 66zm164 0-47-100-27 34 18 66z"/><path fill="#D39E43" d="M120 209h16v51h-16z"/></g>
  <g data-layer="prop"><circle fill="none" stroke="#D9AA48" stroke-width="6" cx="151" cy="125" r="19"/><path fill="none" stroke="#D9AA48" stroke-width="4" d="M167 136q10 20 1 38"/><path fill="#D6A342" d="M67 246l7-12 10 5 11-5 7 12 12 7-5 11 5 12-12 6-7 12-11-5-10 5-7-12-12-6 5-12-5-11z"/><circle fill="#F5DB82" cx="84" cy="264" r="11"/></g>
  <g data-layer="expression-anchors" fill="none" stroke="none"><path data-expression="NEUTRAL" data-brow-shift-svg="0" data-eye-height-shift-svg="0" data-mouth-corner-shift-svg="0" d="M96 108h24m16 0h24m-38 58h14"/><path data-expression="POSITIVE" data-brow-shift-svg="-5" data-eye-height-shift-svg="-3" data-mouth-corner-shift-svg="-5" d="M96 104h24m16 0h24m-27 52q9 12 18 0"/><path data-expression="NEGATIVE" data-brow-shift-svg="5" data-eye-height-shift-svg="-3" data-mouth-corner-shift-svg="5" d="M96 113h24m16 0h24m-27 54q9-10 18 0"/></g>
</svg>
