# Procedural original R2 mesh: Prop_delivery_cart
mtllib materials.mtl
v -0.4000 0.0000 -0.4750
v 0.4000 0.0000 -0.4750
v 0.4000 0.5000 -0.4750
v -0.4000 0.5000 -0.4750
v -0.4000 0.0000 0.4750
v 0.4000 0.0000 0.4750
v 0.4000 0.5000 0.4750
v -0.4000 0.5000 0.4750
v -0.3400 0.4850 -0.3800
v 0.3400 0.4850 -0.3800
v 0.3400 0.5650 -0.3800
v -0.3400 0.5650 -0.3800
v -0.3400 0.4850 0.3800
v 0.3400 0.4850 0.3800
v 0.3400 0.5650 0.3800
v -0.3400 0.5650 0.3800
v 0.2200 0.7250 0.0000
v 0.2083 0.7533 0.0000
v 0.1800 0.7650 0.0000
v 0.1517 0.7533 0.0000
v 0.1400 0.7250 0.0000
v 0.1517 0.6967 0.0000
v 0.1800 0.6850 0.0000
v 0.2083 0.6967 0.0000
v 0.2092 0.7250 0.0680
v 0.1981 0.7533 0.0644
v 0.1712 0.7650 0.0556
v 0.1443 0.7533 0.0469
v 0.1331 0.7250 0.0433
v 0.1443 0.6967 0.0469
v 0.1712 0.6850 0.0556
v 0.1981 0.6967 0.0644
v 0.1780 0.7250 0.1293
v 0.1685 0.7533 0.1224
v 0.1456 0.7650 0.1058
v 0.1227 0.7533 0.0892
v 0.1133 0.7250 0.0823
v 0.1227 0.6967 0.0892
v 0.1456 0.6850 0.1058
v 0.1685 0.6967 0.1224
v 0.1293 0.7250 0.1780
v 0.1224 0.7533 0.1685
v 0.1058 0.7650 0.1456
v 0.0892 0.7533 0.1227
v 0.0823 0.7250 0.1133
v 0.0892 0.6967 0.1227
v 0.1058 0.6850 0.1456
v 0.1224 0.6967 0.1685
v 0.0680 0.7250 0.2092
v 0.0644 0.7533 0.1981
v 0.0556 0.7650 0.1712
v 0.0469 0.7533 0.1443
v 0.0433 0.7250 0.1331
v 0.0469 0.6967 0.1443
v 0.0556 0.6850 0.1712
v 0.0644 0.6967 0.1981
v 0.0000 0.7250 0.2200
v 0.0000 0.7533 0.2083
v 0.0000 0.7650 0.1800
v 0.0000 0.7533 0.1517
v 0.0000 0.7250 0.1400
v 0.0000 0.6967 0.1517
v 0.0000 0.6850 0.1800
v 0.0000 0.6967 0.2083
v -0.0680 0.7250 0.2092
v -0.0644 0.7533 0.1981
v -0.0556 0.7650 0.1712
v -0.0469 0.7533 0.1443
v -0.0433 0.7250 0.1331
v -0.0469 0.6967 0.1443
v -0.0556 0.6850 0.1712
v -0.0644 0.6967 0.1981
v -0.1293 0.7250 0.1780
v -0.1224 0.7533 0.1685
v -0.1058 0.7650 0.1456
v -0.0892 0.7533 0.1227
v -0.0823 0.7250 0.1133
v -0.0892 0.6967 0.1227
v -0.1058 0.6850 0.1456
v -0.1224 0.6967 0.1685
v -0.1780 0.7250 0.1293
v -0.1685 0.7533 0.1224
v -0.1456 0.7650 0.1058
v -0.1227 0.7533 0.0892
v -0.1133 0.7250 0.0823
v -0.1227 0.6967 0.0892
v -0.1456 0.6850 0.1058
v -0.1685 0.6967 0.1224
v -0.2092 0.7250 0.0680
v -0.1981 0.7533 0.0644
v -0.1712 0.7650 0.0556
v -0.1443 0.7533 0.0469
v -0.1331 0.7250 0.0433
v -0.1443 0.6967 0.0469
v -0.1712 0.6850 0.0556
v -0.1981 0.6967 0.0644
v -0.2200 0.7250 0.0000
v -0.2083 0.7533 0.0000
v -0.1800 0.7650 0.0000
v -0.1517 0.7533 0.0000
v -0.1400 0.7250 0.0000
v -0.1517 0.6967 0.0000
v -0.1800 0.6850 0.0000
v -0.2083 0.6967 0.0000
v -0.2092 0.7250 -0.0680
v -0.1981 0.7533 -0.0644
v -0.1712 0.7650 -0.0556
v -0.1443 0.7533 -0.0469
v -0.1331 0.7250 -0.0433
v -0.1443 0.6967 -0.0469
v -0.1712 0.6850 -0.0556
v -0.1981 0.6967 -0.0644
v -0.1780 0.7250 -0.1293
v -0.1685 0.7533 -0.1224
v -0.1456 0.7650 -0.1058
v -0.1227 0.7533 -0.0892
v -0.1133 0.7250 -0.0823
v -0.1227 0.6967 -0.0892
v -0.1456 0.6850 -0.1058
v -0.1685 0.6967 -0.1224
v -0.1293 0.7250 -0.1780
v -0.1224 0.7533 -0.1685
v -0.1058 0.7650 -0.1456
v -0.0892 0.7533 -0.1227
v -0.0823 0.7250 -0.1133
v -0.0892 0.6967 -0.1227
v -0.1058 0.6850 -0.1456
v -0.1224 0.6967 -0.1685
v -0.0680 0.7250 -0.2092
v -0.0644 0.7533 -0.1981
v -0.0556 0.7650 -0.1712
v -0.0469 0.7533 -0.1443
v -0.0433 0.7250 -0.1331
v -0.0469 0.6967 -0.1443
v -0.0556 0.6850 -0.1712
v -0.0644 0.6967 -0.1981
v -0.0000 0.7250 -0.2200
v -0.0000 0.7533 -0.2083
v -0.0000 0.7650 -0.1800
v -0.0000 0.7533 -0.1517
v -0.0000 0.7250 -0.1400
v -0.0000 0.6967 -0.1517
v -0.0000 0.6850 -0.1800
v -0.0000 0.6967 -0.2083
v 0.0680 0.7250 -0.2092
v 0.0644 0.7533 -0.1981
v 0.0556 0.7650 -0.1712
v 0.0469 0.7533 -0.1443
v 0.0433 0.7250 -0.1331
v 0.0469 0.6967 -0.1443
v 0.0556 0.6850 -0.1712
v 0.0644 0.6967 -0.1981
v 0.1293 0.7250 -0.1780
v 0.1224 0.7533 -0.1685
v 0.1058 0.7650 -0.1456
v 0.0892 0.7533 -0.1227
v 0.0823 0.7250 -0.1133
v 0.0892 0.6967 -0.1227
v 0.1058 0.6850 -0.1456
v 0.1224 0.6967 -0.1685
v 0.1780 0.7250 -0.1293
v 0.1685 0.7533 -0.1224
v 0.1456 0.7650 -0.1058
v 0.1227 0.7533 -0.0892
v 0.1133 0.7250 -0.0823
v 0.1227 0.6967 -0.0892
v 0.1456 0.6850 -0.1058
v 0.1685 0.6967 -0.1224
v 0.2092 0.7250 -0.0680
v 0.1981 0.7533 -0.0644
v 0.1712 0.7650 -0.0556
v 0.1443 0.7533 -0.0469
v 0.1331 0.7250 -0.0433
v 0.1443 0.6967 -0.0469
v 0.1712 0.6850 -0.0556
v 0.1981 0.6967 -0.0644
g dark_wood
usemtl dark_wood
f 1 2 3 4
f 5 8 7 6
f 1 5 6 2
f 2 6 7 3
f 3 7 8 4
f 5 1 4 8
g brass
usemtl brass
f 9 10 11 12
f 13 16 15 14
f 9 13 14 10
f 10 14 15 11
f 11 15 16 12
f 13 9 12 16
g glass
usemtl glass
f 17 25 26 18
f 18 26 27 19
f 19 27 28 20
f 20 28 29 21
f 21 29 30 22
f 22 30 31 23
f 23 31 32 24
f 24 32 25 17
f 25 33 34 26
f 26 34 35 27
f 27 35 36 28
f 28 36 37 29
f 29 37 38 30
f 30 38 39 31
f 31 39 40 32
f 32 40 33 25
f 33 41 42 34
f 34 42 43 35
f 35 43 44 36
f 36 44 45 37
f 37 45 46 38
f 38 46 47 39
f 39 47 48 40
f 40 48 41 33
f 41 49 50 42
f 42 50 51 43
f 43 51 52 44
f 44 52 53 45
f 45 53 54 46
f 46 54 55 47
f 47 55 56 48
f 48 56 49 41
f 49 57 58 50
f 50 58 59 51
f 51 59 60 52
f 52 60 61 53
f 53 61 62 54
f 54 62 63 55
f 55 63 64 56
f 56 64 57 49
f 57 65 66 58
f 58 66 67 59
f 59 67 68 60
f 60 68 69 61
f 61 69 70 62
f 62 70 71 63
f 63 71 72 64
f 64 72 65 57
f 65 73 74 66
f 66 74 75 67
f 67 75 76 68
f 68 76 77 69
f 69 77 78 70
f 70 78 79 71
f 71 79 80 72
f 72 80 73 65
f 73 81 82 74
f 74 82 83 75
f 75 83 84 76
f 76 84 85 77
f 77 85 86 78
f 78 86 87 79
f 79 87 88 80
f 80 88 81 73
f 81 89 90 82
f 82 90 91 83
f 83 91 92 84
f 84 92 93 85
f 85 93 94 86
f 86 94 95 87
f 87 95 96 88
f 88 96 89 81
f 89 97 98 90
f 90 98 99 91
f 91 99 100 92
f 92 100 101 93
f 93 101 102 94
f 94 102 103 95
f 95 103 104 96
f 96 104 97 89
f 97 105 106 98
f 98 106 107 99
f 99 107 108 100
f 100 108 109 101
f 101 109 110 102
f 102 110 111 103
f 103 111 112 104
f 104 112 105 97
f 105 113 114 106
f 106 114 115 107
f 107 115 116 108
f 108 116 117 109
f 109 117 118 110
f 110 118 119 111
f 111 119 120 112
f 112 120 113 105
f 113 121 122 114
f 114 122 123 115
f 115 123 124 116
f 116 124 125 117
f 117 125 126 118
f 118 126 127 119
f 119 127 128 120
f 120 128 121 113
f 121 129 130 122
f 122 130 131 123
f 123 131 132 124
f 124 132 133 125
f 125 133 134 126
f 126 134 135 127
f 127 135 136 128
f 128 136 129 121
f 129 137 138 130
f 130 138 139 131
f 131 139 140 132
f 132 140 141 133
f 133 141 142 134
f 134 142 143 135
f 135 143 144 136
f 136 144 137 129
f 137 145 146 138
f 138 146 147 139
f 139 147 148 140
f 140 148 149 141
f 141 149 150 142
f 142 150 151 143
f 143 151 152 144
f 144 152 145 137
f 145 153 154 146
f 146 154 155 147
f 147 155 156 148
f 148 156 157 149
f 149 157 158 150
f 150 158 159 151
f 151 159 160 152
f 152 160 153 145
f 153 161 162 154
f 154 162 163 155
f 155 163 164 156
f 156 164 165 157
f 157 165 166 158
f 158 166 167 159
f 159 167 168 160
f 160 168 161 153
f 161 169 170 162
f 162 170 171 163
f 163 171 172 164
f 164 172 173 165
f 165 173 174 166
f 166 174 175 167
f 167 175 176 168
f 168 176 169 161
f 169 17 18 170
f 170 18 19 171
f 171 19 20 172
f 172 20 21 173
f 173 21 22 174
f 174 22 23 175
f 175 23 24 176
f 176 24 17 169
