# Procedural original R2 mesh: Prop_display_cabinet
mtllib materials.mtl
v -0.4000 0.0000 -0.2750
v 0.4000 0.0000 -0.2750
v 0.4000 0.9800 -0.2750
v -0.4000 0.9800 -0.2750
v -0.4000 0.0000 0.2750
v 0.4000 0.0000 0.2750
v 0.4000 0.9800 0.2750
v -0.4000 0.9800 0.2750
v -0.3400 0.9890 -0.2200
v 0.3400 0.9890 -0.2200
v 0.3400 1.0690 -0.2200
v -0.3400 1.0690 -0.2200
v -0.3400 0.9890 0.2200
v 0.3400 0.9890 0.2200
v 0.3400 1.0690 0.2200
v -0.3400 1.0690 0.2200
v 0.1200 0.8250 0.0000
v 0.1200 1.6250 0.0000
v 0.1109 0.8250 0.0459
v 0.1109 1.6250 0.0459
v 0.0849 0.8250 0.0849
v 0.0849 1.6250 0.0849
v 0.0459 0.8250 0.1109
v 0.0459 1.6250 0.1109
v 0.0000 0.8250 0.1200
v 0.0000 1.6250 0.1200
v -0.0459 0.8250 0.1109
v -0.0459 1.6250 0.1109
v -0.0849 0.8250 0.0849
v -0.0849 1.6250 0.0849
v -0.1109 0.8250 0.0459
v -0.1109 1.6250 0.0459
v -0.1200 0.8250 0.0000
v -0.1200 1.6250 0.0000
v -0.1109 0.8250 -0.0459
v -0.1109 1.6250 -0.0459
v -0.0849 0.8250 -0.0849
v -0.0849 1.6250 -0.0849
v -0.0459 0.8250 -0.1109
v -0.0459 1.6250 -0.1109
v -0.0000 0.8250 -0.1200
v -0.0000 1.6250 -0.1200
v 0.0459 0.8250 -0.1109
v 0.0459 1.6250 -0.1109
v 0.0849 0.8250 -0.0849
v 0.0849 1.6250 -0.0849
v 0.1109 0.8250 -0.0459
v 0.1109 1.6250 -0.0459
v 0.2200 1.4210 0.0000
v 0.2083 1.4493 0.0000
v 0.1800 1.4610 0.0000
v 0.1517 1.4493 0.0000
v 0.1400 1.4210 0.0000
v 0.1517 1.3927 0.0000
v 0.1800 1.3810 0.0000
v 0.2083 1.3927 0.0000
v 0.2092 1.4210 0.0680
v 0.1981 1.4493 0.0644
v 0.1712 1.4610 0.0556
v 0.1443 1.4493 0.0469
v 0.1331 1.4210 0.0433
v 0.1443 1.3927 0.0469
v 0.1712 1.3810 0.0556
v 0.1981 1.3927 0.0644
v 0.1780 1.4210 0.1293
v 0.1685 1.4493 0.1224
v 0.1456 1.4610 0.1058
v 0.1227 1.4493 0.0892
v 0.1133 1.4210 0.0823
v 0.1227 1.3927 0.0892
v 0.1456 1.3810 0.1058
v 0.1685 1.3927 0.1224
v 0.1293 1.4210 0.1780
v 0.1224 1.4493 0.1685
v 0.1058 1.4610 0.1456
v 0.0892 1.4493 0.1227
v 0.0823 1.4210 0.1133
v 0.0892 1.3927 0.1227
v 0.1058 1.3810 0.1456
v 0.1224 1.3927 0.1685
v 0.0680 1.4210 0.2092
v 0.0644 1.4493 0.1981
v 0.0556 1.4610 0.1712
v 0.0469 1.4493 0.1443
v 0.0433 1.4210 0.1331
v 0.0469 1.3927 0.1443
v 0.0556 1.3810 0.1712
v 0.0644 1.3927 0.1981
v 0.0000 1.4210 0.2200
v 0.0000 1.4493 0.2083
v 0.0000 1.4610 0.1800
v 0.0000 1.4493 0.1517
v 0.0000 1.4210 0.1400
v 0.0000 1.3927 0.1517
v 0.0000 1.3810 0.1800
v 0.0000 1.3927 0.2083
v -0.0680 1.4210 0.2092
v -0.0644 1.4493 0.1981
v -0.0556 1.4610 0.1712
v -0.0469 1.4493 0.1443
v -0.0433 1.4210 0.1331
v -0.0469 1.3927 0.1443
v -0.0556 1.3810 0.1712
v -0.0644 1.3927 0.1981
v -0.1293 1.4210 0.1780
v -0.1224 1.4493 0.1685
v -0.1058 1.4610 0.1456
v -0.0892 1.4493 0.1227
v -0.0823 1.4210 0.1133
v -0.0892 1.3927 0.1227
v -0.1058 1.3810 0.1456
v -0.1224 1.3927 0.1685
v -0.1780 1.4210 0.1293
v -0.1685 1.4493 0.1224
v -0.1456 1.4610 0.1058
v -0.1227 1.4493 0.0892
v -0.1133 1.4210 0.0823
v -0.1227 1.3927 0.0892
v -0.1456 1.3810 0.1058
v -0.1685 1.3927 0.1224
v -0.2092 1.4210 0.0680
v -0.1981 1.4493 0.0644
v -0.1712 1.4610 0.0556
v -0.1443 1.4493 0.0469
v -0.1331 1.4210 0.0433
v -0.1443 1.3927 0.0469
v -0.1712 1.3810 0.0556
v -0.1981 1.3927 0.0644
v -0.2200 1.4210 0.0000
v -0.2083 1.4493 0.0000
v -0.1800 1.4610 0.0000
v -0.1517 1.4493 0.0000
v -0.1400 1.4210 0.0000
v -0.1517 1.3927 0.0000
v -0.1800 1.3810 0.0000
v -0.2083 1.3927 0.0000
v -0.2092 1.4210 -0.0680
v -0.1981 1.4493 -0.0644
v -0.1712 1.4610 -0.0556
v -0.1443 1.4493 -0.0469
v -0.1331 1.4210 -0.0433
v -0.1443 1.3927 -0.0469
v -0.1712 1.3810 -0.0556
v -0.1981 1.3927 -0.0644
v -0.1780 1.4210 -0.1293
v -0.1685 1.4493 -0.1224
v -0.1456 1.4610 -0.1058
v -0.1227 1.4493 -0.0892
v -0.1133 1.4210 -0.0823
v -0.1227 1.3927 -0.0892
v -0.1456 1.3810 -0.1058
v -0.1685 1.3927 -0.1224
v -0.1293 1.4210 -0.1780
v -0.1224 1.4493 -0.1685
v -0.1058 1.4610 -0.1456
v -0.0892 1.4493 -0.1227
v -0.0823 1.4210 -0.1133
v -0.0892 1.3927 -0.1227
v -0.1058 1.3810 -0.1456
v -0.1224 1.3927 -0.1685
v -0.0680 1.4210 -0.2092
v -0.0644 1.4493 -0.1981
v -0.0556 1.4610 -0.1712
v -0.0469 1.4493 -0.1443
v -0.0433 1.4210 -0.1331
v -0.0469 1.3927 -0.1443
v -0.0556 1.3810 -0.1712
v -0.0644 1.3927 -0.1981
v -0.0000 1.4210 -0.2200
v -0.0000 1.4493 -0.2083
v -0.0000 1.4610 -0.1800
v -0.0000 1.4493 -0.1517
v -0.0000 1.4210 -0.1400
v -0.0000 1.3927 -0.1517
v -0.0000 1.3810 -0.1800
v -0.0000 1.3927 -0.2083
v 0.0680 1.4210 -0.2092
v 0.0644 1.4493 -0.1981
v 0.0556 1.4610 -0.1712
v 0.0469 1.4493 -0.1443
v 0.0433 1.4210 -0.1331
v 0.0469 1.3927 -0.1443
v 0.0556 1.3810 -0.1712
v 0.0644 1.3927 -0.1981
v 0.1293 1.4210 -0.1780
v 0.1224 1.4493 -0.1685
v 0.1058 1.4610 -0.1456
v 0.0892 1.4493 -0.1227
v 0.0823 1.4210 -0.1133
v 0.0892 1.3927 -0.1227
v 0.1058 1.3810 -0.1456
v 0.1224 1.3927 -0.1685
v 0.1780 1.4210 -0.1293
v 0.1685 1.4493 -0.1224
v 0.1456 1.4610 -0.1058
v 0.1227 1.4493 -0.0892
v 0.1133 1.4210 -0.0823
v 0.1227 1.3927 -0.0892
v 0.1456 1.3810 -0.1058
v 0.1685 1.3927 -0.1224
v 0.2092 1.4210 -0.0680
v 0.1981 1.4493 -0.0644
v 0.1712 1.4610 -0.0556
v 0.1443 1.4493 -0.0469
v 0.1331 1.4210 -0.0433
v 0.1443 1.3927 -0.0469
v 0.1712 1.3810 -0.0556
v 0.1981 1.3927 -0.0644
g painted_metal
usemtl painted_metal
f 1 2 3 4
f 5 8 7 6
f 1 5 6 2
f 2 6 7 3
f 3 7 8 4
f 5 1 4 8
g brass
usemtl brass
f 9 10 11 12
f 13 16 15 14
f 9 13 14 10
f 10 14 15 11
f 11 15 16 12
f 13 9 12 16
f 17 19 20 18
f 19 21 22 20
f 21 23 24 22
f 23 25 26 24
f 25 27 28 26
f 27 29 30 28
f 29 31 32 30
f 31 33 34 32
f 33 35 36 34
f 35 37 38 36
f 37 39 40 38
f 39 41 42 40
f 41 43 44 42
f 43 45 46 44
f 45 47 48 46
f 47 17 18 48
f 47 45 43 41 39 37 35 33 31 29 27 25 23 21 19 17
f 18 20 22 24 26 28 30 32 34 36 38 40 42 44 46 48
g glass
usemtl glass
f 49 57 58 50
f 50 58 59 51
f 51 59 60 52
f 52 60 61 53
f 53 61 62 54
f 54 62 63 55
f 55 63 64 56
f 56 64 57 49
f 57 65 66 58
f 58 66 67 59
f 59 67 68 60
f 60 68 69 61
f 61 69 70 62
f 62 70 71 63
f 63 71 72 64
f 64 72 65 57
f 65 73 74 66
f 66 74 75 67
f 67 75 76 68
f 68 76 77 69
f 69 77 78 70
f 70 78 79 71
f 71 79 80 72
f 72 80 73 65
f 73 81 82 74
f 74 82 83 75
f 75 83 84 76
f 76 84 85 77
f 77 85 86 78
f 78 86 87 79
f 79 87 88 80
f 80 88 81 73
f 81 89 90 82
f 82 90 91 83
f 83 91 92 84
f 84 92 93 85
f 85 93 94 86
f 86 94 95 87
f 87 95 96 88
f 88 96 89 81
f 89 97 98 90
f 90 98 99 91
f 91 99 100 92
f 92 100 101 93
f 93 101 102 94
f 94 102 103 95
f 95 103 104 96
f 96 104 97 89
f 97 105 106 98
f 98 106 107 99
f 99 107 108 100
f 100 108 109 101
f 101 109 110 102
f 102 110 111 103
f 103 111 112 104
f 104 112 105 97
f 105 113 114 106
f 106 114 115 107
f 107 115 116 108
f 108 116 117 109
f 109 117 118 110
f 110 118 119 111
f 111 119 120 112
f 112 120 113 105
f 113 121 122 114
f 114 122 123 115
f 115 123 124 116
f 116 124 125 117
f 117 125 126 118
f 118 126 127 119
f 119 127 128 120
f 120 128 121 113
f 121 129 130 122
f 122 130 131 123
f 123 131 132 124
f 124 132 133 125
f 125 133 134 126
f 126 134 135 127
f 127 135 136 128
f 128 136 129 121
f 129 137 138 130
f 130 138 139 131
f 131 139 140 132
f 132 140 141 133
f 133 141 142 134
f 134 142 143 135
f 135 143 144 136
f 136 144 137 129
f 137 145 146 138
f 138 146 147 139
f 139 147 148 140
f 140 148 149 141
f 141 149 150 142
f 142 150 151 143
f 143 151 152 144
f 144 152 145 137
f 145 153 154 146
f 146 154 155 147
f 147 155 156 148
f 148 156 157 149
f 149 157 158 150
f 150 158 159 151
f 151 159 160 152
f 152 160 153 145
f 153 161 162 154
f 154 162 163 155
f 155 163 164 156
f 156 164 165 157
f 157 165 166 158
f 158 166 167 159
f 159 167 168 160
f 160 168 161 153
f 161 169 170 162
f 162 170 171 163
f 163 171 172 164
f 164 172 173 165
f 165 173 174 166
f 166 174 175 167
f 167 175 176 168
f 168 176 169 161
f 169 177 178 170
f 170 178 179 171
f 171 179 180 172
f 172 180 181 173
f 173 181 182 174
f 174 182 183 175
f 175 183 184 176
f 176 184 177 169
f 177 185 186 178
f 178 186 187 179
f 179 187 188 180
f 180 188 189 181
f 181 189 190 182
f 182 190 191 183
f 183 191 192 184
f 184 192 185 177
f 185 193 194 186
f 186 194 195 187
f 187 195 196 188
f 188 196 197 189
f 189 197 198 190
f 190 198 199 191
f 191 199 200 192
f 192 200 193 185
f 193 201 202 194
f 194 202 203 195
f 195 203 204 196
f 196 204 205 197
f 197 205 206 198
f 198 206 207 199
f 199 207 208 200
f 200 208 201 193
f 201 49 50 202
f 202 50 51 203
f 203 51 52 204
f 204 52 53 205
f 205 53 54 206
f 206 54 55 207
f 207 55 56 208
f 208 56 49 201
