# Procedural original R2 mesh: Prop_inspection_mat
mtllib materials.mtl
v -0.6500 0.0000 -0.2750
v 0.6500 0.0000 -0.2750
v 0.6500 1.2200 -0.2750
v -0.6500 1.2200 -0.2750
v -0.6500 0.0000 0.2750
v 0.6500 0.0000 0.2750
v 0.6500 1.2200 0.2750
v -0.6500 1.2200 0.2750
v -0.5525 1.2410 -0.2200
v 0.5525 1.2410 -0.2200
v 0.5525 1.3210 -0.2200
v -0.5525 1.3210 -0.2200
v -0.5525 1.2410 0.2200
v 0.5525 1.2410 0.2200
v 0.5525 1.3210 0.2200
v -0.5525 1.3210 0.2200
v 0.1200 1.1250 0.0000
v 0.1200 1.9250 0.0000
v 0.1109 1.1250 0.0459
v 0.1109 1.9250 0.0459
v 0.0849 1.1250 0.0849
v 0.0849 1.9250 0.0849
v 0.0459 1.1250 0.1109
v 0.0459 1.9250 0.1109
v 0.0000 1.1250 0.1200
v 0.0000 1.9250 0.1200
v -0.0459 1.1250 0.1109
v -0.0459 1.9250 0.1109
v -0.0849 1.1250 0.0849
v -0.0849 1.9250 0.0849
v -0.1109 1.1250 0.0459
v -0.1109 1.9250 0.0459
v -0.1200 1.1250 0.0000
v -0.1200 1.9250 0.0000
v -0.1109 1.1250 -0.0459
v -0.1109 1.9250 -0.0459
v -0.0849 1.1250 -0.0849
v -0.0849 1.9250 -0.0849
v -0.0459 1.1250 -0.1109
v -0.0459 1.9250 -0.1109
v -0.0000 1.1250 -0.1200
v -0.0000 1.9250 -0.1200
v 0.0459 1.1250 -0.1109
v 0.0459 1.9250 -0.1109
v 0.0849 1.1250 -0.0849
v 0.0849 1.9250 -0.0849
v 0.1109 1.1250 -0.0459
v 0.1109 1.9250 -0.0459
g painted_metal
usemtl painted_metal
f 1 2 3 4
f 5 8 7 6
f 1 5 6 2
f 2 6 7 3
f 3 7 8 4
f 5 1 4 8
g brass
usemtl brass
f 9 10 11 12
f 13 16 15 14
f 9 13 14 10
f 10 14 15 11
f 11 15 16 12
f 13 9 12 16
f 17 19 20 18
f 19 21 22 20
f 21 23 24 22
f 23 25 26 24
f 25 27 28 26
f 27 29 30 28
f 29 31 32 30
f 31 33 34 32
f 33 35 36 34
f 35 37 38 36
f 37 39 40 38
f 39 41 42 40
f 41 43 44 42
f 43 45 46 44
f 45 47 48 46
f 47 17 18 48
f 47 45 43 41 39 37 35 33 31 29 27 25 23 21 19 17
f 18 20 22 24 26 28 30 32 34 36 38 40 42 44 46 48
