# Procedural original R2 mesh: Prop_inspection_lamp
mtllib materials.mtl
v -0.7750 0.0000 -0.2750
v 0.7750 0.0000 -0.2750
v 0.7750 1.2200 -0.2750
v -0.7750 1.2200 -0.2750
v -0.7750 0.0000 0.2750
v 0.7750 0.0000 0.2750
v 0.7750 1.2200 0.2750
v -0.7750 1.2200 0.2750
v 0.1200 1.1250 0.0000
v 0.1200 1.9250 0.0000
v 0.1109 1.1250 0.0459
v 0.1109 1.9250 0.0459
v 0.0849 1.1250 0.0849
v 0.0849 1.9250 0.0849
v 0.0459 1.1250 0.1109
v 0.0459 1.9250 0.1109
v 0.0000 1.1250 0.1200
v 0.0000 1.9250 0.1200
v -0.0459 1.1250 0.1109
v -0.0459 1.9250 0.1109
v -0.0849 1.1250 0.0849
v -0.0849 1.9250 0.0849
v -0.1109 1.1250 0.0459
v -0.1109 1.9250 0.0459
v -0.1200 1.1250 0.0000
v -0.1200 1.9250 0.0000
v -0.1109 1.1250 -0.0459
v -0.1109 1.9250 -0.0459
v -0.0849 1.1250 -0.0849
v -0.0849 1.9250 -0.0849
v -0.0459 1.1250 -0.1109
v -0.0459 1.9250 -0.1109
v -0.0000 1.1250 -0.1200
v -0.0000 1.9250 -0.1200
v 0.0459 1.1250 -0.1109
v 0.0459 1.9250 -0.1109
v 0.0849 1.1250 -0.0849
v 0.0849 1.9250 -0.0849
v 0.1109 1.1250 -0.0459
v 0.1109 1.9250 -0.0459
g painted_metal
usemtl painted_metal
f 1 2 3 4
f 5 8 7 6
f 1 5 6 2
f 2 6 7 3
f 3 7 8 4
f 5 1 4 8
g brass
usemtl brass
f 9 11 12 10
f 11 13 14 12
f 13 15 16 14
f 15 17 18 16
f 17 19 20 18
f 19 21 22 20
f 21 23 24 22
f 23 25 26 24
f 25 27 28 26
f 27 29 30 28
f 29 31 32 30
f 31 33 34 32
f 33 35 36 34
f 35 37 38 36
f 37 39 40 38
f 39 9 10 40
f 39 37 35 33 31 29 27 25 23 21 19 17 15 13 11 9
f 10 12 14 16 18 20 22 24 26 28 30 32 34 36 38 40
