# Procedural original R2 mesh: Prop_shelf
mtllib materials.mtl
v -0.5250 0.0000 -0.3750
v 0.5250 0.0000 -0.3750
v 0.5250 0.7400 -0.3750
v -0.5250 0.7400 -0.3750
v -0.5250 0.0000 0.3750
v 0.5250 0.0000 0.3750
v 0.5250 0.7400 0.3750
v -0.5250 0.7400 0.3750
g dark_wood
usemtl dark_wood
f 1 2 3 4
f 5 8 7 6
f 1 5 6 2
f 2 6 7 3
f 3 7 8 4
f 5 1 4 8
g component
usemtl brass
v -0.1800 0.4300 -0.1800
v 0.1800 0.4300 -0.1800
v 0.1800 0.6700 -0.1800
v -0.1800 0.6700 -0.1800
v -0.1800 0.4300 0.1800
v 0.1800 0.4300 0.1800
v 0.1800 0.6700 0.1800
v -0.1800 0.6700 0.1800
f 9 10 11 12
f 13 16 15 14
f 9 13 14 10
f 10 14 15 11
f 11 15 16 12
f 13 9 12 16
